<mxfile type="github" version="12.4.3" pages="1" etag="qlDsoLHzVYIR-WdP9SJR" agent="Mozilla/5.0 (Windows Phone 10.0; Android 6.0.1; Microsoft; Lumia 550) AppleWebKit/537.36 (KHTML, like Gecko) Chrome/52.0.2743.116 Mobile Safari/537.36 Edge/15.15254" modified="2019-12-19T22:59:26.650Z" host="www.draw.io">
  <diagram id="e56a1550-8fbb-45ad-956c-1786394a9013" name="Page-1">
    <mxGraphModel grid="1" shadow="0" math="0" background="#ffffff" pageHeight="850" pageWidth="1100" pageScale="1" page="1" fold="1" arrows="1" connect="1" tooltips="1" guides="1" gridSize="10" dy="425" dx="326">
      <root>
        <mxCell id="0"/>
        <mxCell id="1" parent="0"/>
        <mxCell id="2e49270ec7c68f3f-1" value="Audit" parent="1" vertex="1" style="swimlane;html=1;fontStyle=0;childLayout=stackLayout;horizontal=1;startSize=16;fillColor=#e0e0e0;horizontalStack=0;resizeParent=1;resizeLast=0;collapsible=1;marginBottom=0;swimlaneFillColor=#ffffff;align=center;rounded=0;shadow=0;comic=0;labelBackgroundColor=none;strokeColor=#000000;strokeWidth=1;fontFamily=Verdana;fontSize=14;fontColor=#000000;">
          <mxGeometry as="geometry" height="284" width="160" y="460" x="460"/>
        </mxCell>
        <mxCell id="2e49270ec7c68f3f-2" value="Id" parent="2e49270ec7c68f3f-1" vertex="1" style="shape=partialRectangle;top=0;left=0;right=0;bottom=0;html=1;align=left;verticalAlign=middle;fillColor=none;spacingLeft=60;spacingRight=4;whiteSpace=wrap;overflow=hidden;rotatable=0;points=[[0,0.5],[1,0.5]];portConstraint=eastwest;dropTarget=0;fontStyle=5;">
          <mxGeometry as="geometry" height="30" width="160" y="16"/>
        </mxCell>
        <mxCell id="2e49270ec7c68f3f-3" value="PK" parent="2e49270ec7c68f3f-2" vertex="1" style="shape=partialRectangle;fontStyle=1;top=0;left=0;bottom=0;html=1;fillColor=none;align=left;verticalAlign=middle;spacingLeft=4;spacingRight=4;whiteSpace=wrap;overflow=hidden;rotatable=0;points=[];portConstraint=eastwest;part=1;" connectable="0">
          <mxGeometry as="geometry" height="30" width="56"/>
        </mxCell>
        <mxCell id="2e49270ec7c68f3f-4" value="" parent="2e49270ec7c68f3f-1" vertex="1" style="shape=partialRectangle;top=0;left=0;right=0;bottom=1;html=1;align=left;verticalAlign=middle;fillColor=none;spacingLeft=60;spacingRight=4;whiteSpace=wrap;overflow=hidden;rotatable=0;points=[[0,0.5],[1,0.5]];portConstraint=eastwest;dropTarget=0;fontStyle=5;">
          <mxGeometry as="geometry" height="30" width="160" y="46"/>
        </mxCell>
        <mxCell id="2e49270ec7c68f3f-5" value="" parent="2e49270ec7c68f3f-4" vertex="1" style="shape=partialRectangle;fontStyle=1;top=0;left=0;bottom=0;html=1;fillColor=none;align=left;verticalAlign=middle;spacingLeft=4;spacingRight=4;whiteSpace=wrap;overflow=hidden;rotatable=0;points=[];portConstraint=eastwest;part=1;" connectable="0">
          <mxGeometry as="geometry" height="30" width="56"/>
        </mxCell>
        <mxCell id="2e49270ec7c68f3f-6" value="ApplicationID" parent="2e49270ec7c68f3f-1" vertex="1" style="shape=partialRectangle;top=0;left=0;right=0;bottom=0;html=1;align=left;verticalAlign=top;fillColor=none;spacingLeft=60;spacingRight=4;whiteSpace=wrap;overflow=hidden;rotatable=0;points=[[0,0.5],[1,0.5]];portConstraint=eastwest;dropTarget=0;">
          <mxGeometry as="geometry" height="24" width="160" y="76"/>
        </mxCell>
        <mxCell id="2e49270ec7c68f3f-7" value="" parent="2e49270ec7c68f3f-6" vertex="1" style="shape=partialRectangle;top=0;left=0;bottom=0;html=1;fillColor=none;align=left;verticalAlign=top;spacingLeft=4;spacingRight=4;whiteSpace=wrap;overflow=hidden;rotatable=0;points=[];portConstraint=eastwest;part=1;" connectable="0">
          <mxGeometry as="geometry" height="24" width="56"/>
        </mxCell>
        <mxCell id="PmstyWCTgp6tROXILMXU-38" value="AuditEventID" parent="2e49270ec7c68f3f-1" vertex="1" style="shape=partialRectangle;top=0;left=0;right=0;bottom=0;html=1;align=left;verticalAlign=top;fillColor=none;spacingLeft=60;spacingRight=4;whiteSpace=wrap;overflow=hidden;rotatable=0;points=[[0,0.5],[1,0.5]];portConstraint=eastwest;dropTarget=0;">
          <mxGeometry as="geometry" height="24" width="160" y="100"/>
        </mxCell>
        <mxCell id="PmstyWCTgp6tROXILMXU-39" value="" parent="PmstyWCTgp6tROXILMXU-38" vertex="1" style="shape=partialRectangle;top=0;left=0;bottom=0;html=1;fillColor=none;align=left;verticalAlign=top;spacingLeft=4;spacingRight=4;whiteSpace=wrap;overflow=hidden;rotatable=0;points=[];portConstraint=eastwest;part=1;" connectable="0">
          <mxGeometry as="geometry" height="24" width="56"/>
        </mxCell>
        <mxCell id="SwsiR07pHhI11kPIutOl-208" value="AuditTypeID" parent="2e49270ec7c68f3f-1" vertex="1" style="shape=partialRectangle;top=0;left=0;right=0;bottom=0;html=1;align=left;verticalAlign=top;fillColor=none;spacingLeft=60;spacingRight=4;whiteSpace=wrap;overflow=hidden;rotatable=0;points=[[0,0.5],[1,0.5]];portConstraint=eastwest;dropTarget=0;">
          <mxGeometry as="geometry" height="24" width="160" y="124"/>
        </mxCell>
        <mxCell id="SwsiR07pHhI11kPIutOl-209" value="" parent="SwsiR07pHhI11kPIutOl-208" vertex="1" style="shape=partialRectangle;top=0;left=0;bottom=0;html=1;fillColor=none;align=left;verticalAlign=top;spacingLeft=4;spacingRight=4;whiteSpace=wrap;overflow=hidden;rotatable=0;points=[];portConstraint=eastwest;part=1;" connectable="0">
          <mxGeometry as="geometry" height="24" width="56"/>
        </mxCell>
        <mxCell id="SwsiR07pHhI11kPIutOl-156" value="EnviromentID" parent="2e49270ec7c68f3f-1" vertex="1" style="shape=partialRectangle;top=0;left=0;right=0;bottom=0;html=1;align=left;verticalAlign=top;fillColor=none;spacingLeft=60;spacingRight=4;whiteSpace=wrap;overflow=hidden;rotatable=0;points=[[0,0.5],[1,0.5]];portConstraint=eastwest;dropTarget=0;">
          <mxGeometry as="geometry" height="20" width="160" y="148"/>
        </mxCell>
        <mxCell id="SwsiR07pHhI11kPIutOl-157" value="" parent="SwsiR07pHhI11kPIutOl-156" vertex="1" style="shape=partialRectangle;top=0;left=0;bottom=0;html=1;fillColor=none;align=left;verticalAlign=top;spacingLeft=4;spacingRight=4;whiteSpace=wrap;overflow=hidden;rotatable=0;points=[];portConstraint=eastwest;part=1;" connectable="0">
          <mxGeometry as="geometry" height="20" width="56"/>
        </mxCell>
        <mxCell id="SwsiR07pHhI11kPIutOl-152" value="ConfigurationiD" parent="2e49270ec7c68f3f-1" vertex="1" style="shape=partialRectangle;top=0;left=0;right=0;bottom=0;html=1;align=left;verticalAlign=top;fillColor=none;spacingLeft=60;spacingRight=4;whiteSpace=wrap;overflow=hidden;rotatable=0;points=[[0,0.5],[1,0.5]];portConstraint=eastwest;dropTarget=0;">
          <mxGeometry as="geometry" height="20" width="160" y="168"/>
        </mxCell>
        <mxCell id="SwsiR07pHhI11kPIutOl-153" value="" parent="SwsiR07pHhI11kPIutOl-152" vertex="1" style="shape=partialRectangle;top=0;left=0;bottom=0;html=1;fillColor=none;align=left;verticalAlign=top;spacingLeft=4;spacingRight=4;whiteSpace=wrap;overflow=hidden;rotatable=0;points=[];portConstraint=eastwest;part=1;" connectable="0">
          <mxGeometry as="geometry" height="20" width="56"/>
        </mxCell>
        <mxCell id="PmstyWCTgp6tROXILMXU-24" value="CreatedBy" parent="2e49270ec7c68f3f-1" vertex="1" style="shape=partialRectangle;top=0;left=0;right=0;bottom=0;html=1;align=left;verticalAlign=top;fillColor=none;spacingLeft=60;spacingRight=4;whiteSpace=wrap;overflow=hidden;rotatable=0;points=[[0,0.5],[1,0.5]];portConstraint=eastwest;dropTarget=0;">
          <mxGeometry as="geometry" height="24" width="160" y="188"/>
        </mxCell>
        <mxCell id="PmstyWCTgp6tROXILMXU-25" value="" parent="PmstyWCTgp6tROXILMXU-24" vertex="1" style="shape=partialRectangle;top=0;left=0;bottom=0;html=1;fillColor=none;align=left;verticalAlign=top;spacingLeft=4;spacingRight=4;whiteSpace=wrap;overflow=hidden;rotatable=0;points=[];portConstraint=eastwest;part=1;" connectable="0">
          <mxGeometry as="geometry" height="24" width="56"/>
        </mxCell>
        <mxCell id="PmstyWCTgp6tROXILMXU-34" value="ModifyBy" parent="2e49270ec7c68f3f-1" vertex="1" style="shape=partialRectangle;top=0;left=0;right=0;bottom=0;html=1;align=left;verticalAlign=top;fillColor=none;spacingLeft=60;spacingRight=4;whiteSpace=wrap;overflow=hidden;rotatable=0;points=[[0,0.5],[1,0.5]];portConstraint=eastwest;dropTarget=0;">
          <mxGeometry as="geometry" height="24" width="160" y="212"/>
        </mxCell>
        <mxCell id="PmstyWCTgp6tROXILMXU-35" value="" parent="PmstyWCTgp6tROXILMXU-34" vertex="1" style="shape=partialRectangle;top=0;left=0;bottom=0;html=1;fillColor=none;align=left;verticalAlign=top;spacingLeft=4;spacingRight=4;whiteSpace=wrap;overflow=hidden;rotatable=0;points=[];portConstraint=eastwest;part=1;" connectable="0">
          <mxGeometry as="geometry" height="24" width="56"/>
        </mxCell>
        <mxCell id="PmstyWCTgp6tROXILMXU-32" value="CreatedDate" parent="2e49270ec7c68f3f-1" vertex="1" style="shape=partialRectangle;top=0;left=0;right=0;bottom=0;html=1;align=left;verticalAlign=top;fillColor=none;spacingLeft=60;spacingRight=4;whiteSpace=wrap;overflow=hidden;rotatable=0;points=[[0,0.5],[1,0.5]];portConstraint=eastwest;dropTarget=0;">
          <mxGeometry as="geometry" height="24" width="160" y="236"/>
        </mxCell>
        <mxCell id="PmstyWCTgp6tROXILMXU-33" value="" parent="PmstyWCTgp6tROXILMXU-32" vertex="1" style="shape=partialRectangle;top=0;left=0;bottom=0;html=1;fillColor=none;align=left;verticalAlign=top;spacingLeft=4;spacingRight=4;whiteSpace=wrap;overflow=hidden;rotatable=0;points=[];portConstraint=eastwest;part=1;" connectable="0">
          <mxGeometry as="geometry" height="24" width="56"/>
        </mxCell>
        <mxCell id="PmstyWCTgp6tROXILMXU-36" value="ModifyDate" parent="2e49270ec7c68f3f-1" vertex="1" style="shape=partialRectangle;top=0;left=0;right=0;bottom=0;html=1;align=left;verticalAlign=top;fillColor=none;spacingLeft=60;spacingRight=4;whiteSpace=wrap;overflow=hidden;rotatable=0;points=[[0,0.5],[1,0.5]];portConstraint=eastwest;dropTarget=0;">
          <mxGeometry as="geometry" height="24" width="160" y="260"/>
        </mxCell>
        <mxCell id="PmstyWCTgp6tROXILMXU-37" value="" parent="PmstyWCTgp6tROXILMXU-36" vertex="1" style="shape=partialRectangle;top=0;left=0;bottom=0;html=1;fillColor=none;align=left;verticalAlign=top;spacingLeft=4;spacingRight=4;whiteSpace=wrap;overflow=hidden;rotatable=0;points=[];portConstraint=eastwest;part=1;" connectable="0">
          <mxGeometry as="geometry" height="24" width="56"/>
        </mxCell>
        <mxCell id="2e49270ec7c68f3f-48" value="ApplicationType" parent="1" vertex="1" style="swimlane;html=1;fontStyle=0;childLayout=stackLayout;horizontal=1;startSize=26;fillColor=#e0e0e0;horizontalStack=0;resizeParent=1;resizeLast=0;collapsible=1;marginBottom=0;swimlaneFillColor=#ffffff;align=center;rounded=0;shadow=0;comic=0;labelBackgroundColor=none;strokeColor=#000000;strokeWidth=1;fontFamily=Verdana;fontSize=14;fontColor=#000000;">
          <mxGeometry as="geometry" height="138" width="160" y="927" x="450">
            <mxRectangle as="alternateBounds" height="26" width="140" y="580" x="290"/>
          </mxGeometry>
        </mxCell>
        <mxCell id="2e49270ec7c68f3f-49" value="uniqueId" parent="2e49270ec7c68f3f-48" vertex="1" style="shape=partialRectangle;top=0;left=0;right=0;bottom=0;html=1;align=left;verticalAlign=middle;fillColor=none;spacingLeft=60;spacingRight=4;whiteSpace=wrap;overflow=hidden;rotatable=0;points=[[0,0.5],[1,0.5]];portConstraint=eastwest;dropTarget=0;fontStyle=5;">
          <mxGeometry as="geometry" height="30" width="160" y="26"/>
        </mxCell>
        <mxCell id="2e49270ec7c68f3f-50" value="PK,FK1" parent="2e49270ec7c68f3f-49" vertex="1" style="shape=partialRectangle;fontStyle=1;top=0;left=0;bottom=0;html=1;fillColor=none;align=left;verticalAlign=middle;spacingLeft=4;spacingRight=4;whiteSpace=wrap;overflow=hidden;rotatable=0;points=[];portConstraint=eastwest;part=1;" connectable="0">
          <mxGeometry as="geometry" height="30" width="56"/>
        </mxCell>
        <mxCell id="2e49270ec7c68f3f-51" value="" parent="2e49270ec7c68f3f-48" vertex="1" style="shape=partialRectangle;top=0;left=0;right=0;bottom=1;html=1;align=left;verticalAlign=middle;fillColor=none;spacingLeft=60;spacingRight=4;whiteSpace=wrap;overflow=hidden;rotatable=0;points=[[0,0.5],[1,0.5]];portConstraint=eastwest;dropTarget=0;fontStyle=5;">
          <mxGeometry as="geometry" height="30" width="160" y="56"/>
        </mxCell>
        <mxCell id="2e49270ec7c68f3f-52" value="" parent="2e49270ec7c68f3f-51" vertex="1" style="shape=partialRectangle;fontStyle=1;top=0;left=0;bottom=0;html=1;fillColor=none;align=left;verticalAlign=middle;spacingLeft=4;spacingRight=4;whiteSpace=wrap;overflow=hidden;rotatable=0;points=[];portConstraint=eastwest;part=1;" connectable="0">
          <mxGeometry as="geometry" height="30" width="56"/>
        </mxCell>
        <mxCell id="2e49270ec7c68f3f-53" value="Name" parent="2e49270ec7c68f3f-48" vertex="1" style="shape=partialRectangle;top=0;left=0;right=0;bottom=0;html=1;align=left;verticalAlign=top;fillColor=none;spacingLeft=60;spacingRight=4;whiteSpace=wrap;overflow=hidden;rotatable=0;points=[[0,0.5],[1,0.5]];portConstraint=eastwest;dropTarget=0;">
          <mxGeometry as="geometry" height="24" width="160" y="86"/>
        </mxCell>
        <mxCell id="2e49270ec7c68f3f-54" value="" parent="2e49270ec7c68f3f-53" vertex="1" style="shape=partialRectangle;top=0;left=0;bottom=0;html=1;fillColor=none;align=left;verticalAlign=top;spacingLeft=4;spacingRight=4;whiteSpace=wrap;overflow=hidden;rotatable=0;points=[];portConstraint=eastwest;part=1;" connectable="0">
          <mxGeometry as="geometry" height="24" width="56"/>
        </mxCell>
        <mxCell id="PmstyWCTgp6tROXILMXU-49" value="Description" parent="2e49270ec7c68f3f-48" vertex="1" style="shape=partialRectangle;top=0;left=0;right=0;bottom=0;html=1;align=left;verticalAlign=top;fillColor=none;spacingLeft=60;spacingRight=4;whiteSpace=wrap;overflow=hidden;rotatable=0;points=[[0,0.5],[1,0.5]];portConstraint=eastwest;dropTarget=0;">
          <mxGeometry as="geometry" height="24" width="160" y="110"/>
        </mxCell>
        <mxCell id="PmstyWCTgp6tROXILMXU-50" value="" parent="PmstyWCTgp6tROXILMXU-49" vertex="1" style="shape=partialRectangle;top=0;left=0;bottom=0;html=1;fillColor=none;align=left;verticalAlign=top;spacingLeft=4;spacingRight=4;whiteSpace=wrap;overflow=hidden;rotatable=0;points=[];portConstraint=eastwest;part=1;" connectable="0">
          <mxGeometry as="geometry" height="24" width="56"/>
        </mxCell>
        <mxCell id="2e49270ec7c68f3f-80" value="Application" parent="1" vertex="1" style="swimlane;html=1;fontStyle=0;childLayout=stackLayout;horizontal=1;startSize=26;fillColor=#e0e0e0;horizontalStack=0;resizeParent=1;resizeLast=0;collapsible=1;marginBottom=0;swimlaneFillColor=#ffffff;align=center;rounded=0;shadow=0;comic=0;labelBackgroundColor=none;strokeColor=#000000;strokeWidth=1;fontFamily=Verdana;fontSize=14;fontColor=#000000;">
          <mxGeometry as="geometry" height="346" width="200" y="647" x="120">
            <mxRectangle as="alternateBounds" height="26" width="110" y="277" x="130"/>
          </mxGeometry>
        </mxCell>
        <mxCell id="2e49270ec7c68f3f-81" value="uniqueId" parent="2e49270ec7c68f3f-80" vertex="1" style="shape=partialRectangle;top=0;left=0;right=0;bottom=1;html=1;align=left;verticalAlign=middle;fillColor=none;spacingLeft=34;spacingRight=4;whiteSpace=wrap;overflow=hidden;rotatable=0;points=[[0,0.5],[1,0.5]];portConstraint=eastwest;dropTarget=0;fontStyle=5;">
          <mxGeometry as="geometry" height="30" width="200" y="26"/>
        </mxCell>
        <mxCell id="2e49270ec7c68f3f-82" value="PK,FK" parent="2e49270ec7c68f3f-81" vertex="1" style="shape=partialRectangle;top=0;left=0;bottom=0;html=1;fillColor=none;align=left;verticalAlign=middle;spacingLeft=4;spacingRight=4;whiteSpace=wrap;overflow=hidden;rotatable=0;points=[];portConstraint=eastwest;part=1;" connectable="0">
          <mxGeometry as="geometry" height="30" width="30"/>
        </mxCell>
        <mxCell id="2e49270ec7c68f3f-83" value="Name" parent="2e49270ec7c68f3f-80" vertex="1" style="shape=partialRectangle;top=0;left=0;right=0;bottom=0;html=1;align=left;verticalAlign=top;fillColor=none;spacingLeft=34;spacingRight=4;whiteSpace=wrap;overflow=hidden;rotatable=0;points=[[0,0.5],[1,0.5]];portConstraint=eastwest;dropTarget=0;">
          <mxGeometry as="geometry" height="26" width="200" y="56"/>
        </mxCell>
        <mxCell id="2e49270ec7c68f3f-84" value="" parent="2e49270ec7c68f3f-83" vertex="1" style="shape=partialRectangle;top=0;left=0;bottom=0;html=1;fillColor=none;align=left;verticalAlign=top;spacingLeft=4;spacingRight=4;whiteSpace=wrap;overflow=hidden;rotatable=0;points=[];portConstraint=eastwest;part=1;" connectable="0">
          <mxGeometry as="geometry" height="26" width="30"/>
        </mxCell>
        <mxCell id="2e49270ec7c68f3f-85" value="Alias" parent="2e49270ec7c68f3f-80" vertex="1" style="shape=partialRectangle;top=0;left=0;right=0;bottom=0;html=1;align=left;verticalAlign=top;fillColor=none;spacingLeft=34;spacingRight=4;whiteSpace=wrap;overflow=hidden;rotatable=0;points=[[0,0.5],[1,0.5]];portConstraint=eastwest;dropTarget=0;">
          <mxGeometry as="geometry" height="26" width="200" y="82"/>
        </mxCell>
        <mxCell id="2e49270ec7c68f3f-86" value="" parent="2e49270ec7c68f3f-85" vertex="1" style="shape=partialRectangle;top=0;left=0;bottom=0;html=1;fillColor=none;align=left;verticalAlign=top;spacingLeft=4;spacingRight=4;whiteSpace=wrap;overflow=hidden;rotatable=0;points=[];portConstraint=eastwest;part=1;" connectable="0">
          <mxGeometry as="geometry" height="26" width="30"/>
        </mxCell>
        <mxCell id="2e49270ec7c68f3f-87" value="TypeID" parent="2e49270ec7c68f3f-80" vertex="1" style="shape=partialRectangle;top=0;left=0;right=0;bottom=0;html=1;align=left;verticalAlign=top;fillColor=none;spacingLeft=34;spacingRight=4;whiteSpace=wrap;overflow=hidden;rotatable=0;points=[[0,0.5],[1,0.5]];portConstraint=eastwest;dropTarget=0;">
          <mxGeometry as="geometry" height="26" width="200" y="108"/>
        </mxCell>
        <mxCell id="2e49270ec7c68f3f-88" value="" parent="2e49270ec7c68f3f-87" vertex="1" style="shape=partialRectangle;top=0;left=0;bottom=0;html=1;fillColor=none;align=left;verticalAlign=top;spacingLeft=4;spacingRight=4;whiteSpace=wrap;overflow=hidden;rotatable=0;points=[];portConstraint=eastwest;part=1;" connectable="0">
          <mxGeometry as="geometry" height="26" width="30"/>
        </mxCell>
        <mxCell id="PmstyWCTgp6tROXILMXU-129" value="ConfigurationID" parent="2e49270ec7c68f3f-80" vertex="1" style="shape=partialRectangle;top=0;left=0;right=0;bottom=0;html=1;align=left;verticalAlign=top;fillColor=none;spacingLeft=34;spacingRight=4;whiteSpace=wrap;overflow=hidden;rotatable=0;points=[[0,0.5],[1,0.5]];portConstraint=eastwest;dropTarget=0;">
          <mxGeometry as="geometry" height="26" width="200" y="134"/>
        </mxCell>
        <mxCell id="PmstyWCTgp6tROXILMXU-130" value="" parent="PmstyWCTgp6tROXILMXU-129" vertex="1" style="shape=partialRectangle;top=0;left=0;bottom=0;html=1;fillColor=none;align=left;verticalAlign=top;spacingLeft=4;spacingRight=4;whiteSpace=wrap;overflow=hidden;rotatable=0;points=[];portConstraint=eastwest;part=1;" connectable="0">
          <mxGeometry as="geometry" height="26" width="30"/>
        </mxCell>
        <mxCell id="PmstyWCTgp6tROXILMXU-6" value="CreatedBy" parent="2e49270ec7c68f3f-80" vertex="1" style="shape=partialRectangle;top=0;left=0;right=0;bottom=0;html=1;align=left;verticalAlign=top;fillColor=none;spacingLeft=34;spacingRight=4;whiteSpace=wrap;overflow=hidden;rotatable=0;points=[[0,0.5],[1,0.5]];portConstraint=eastwest;dropTarget=0;">
          <mxGeometry as="geometry" height="26" width="200" y="160"/>
        </mxCell>
        <mxCell id="PmstyWCTgp6tROXILMXU-7" value="" parent="PmstyWCTgp6tROXILMXU-6" vertex="1" style="shape=partialRectangle;top=0;left=0;bottom=0;html=1;fillColor=none;align=left;verticalAlign=top;spacingLeft=4;spacingRight=4;whiteSpace=wrap;overflow=hidden;rotatable=0;points=[];portConstraint=eastwest;part=1;" connectable="0">
          <mxGeometry as="geometry" height="26" width="30"/>
        </mxCell>
        <mxCell id="PmstyWCTgp6tROXILMXU-8" value="CreatedDate" parent="2e49270ec7c68f3f-80" vertex="1" style="shape=partialRectangle;top=0;left=0;right=0;bottom=0;html=1;align=left;verticalAlign=top;fillColor=none;spacingLeft=34;spacingRight=4;whiteSpace=wrap;overflow=hidden;rotatable=0;points=[[0,0.5],[1,0.5]];portConstraint=eastwest;dropTarget=0;">
          <mxGeometry as="geometry" height="26" width="200" y="186"/>
        </mxCell>
        <mxCell id="PmstyWCTgp6tROXILMXU-9" value="" parent="PmstyWCTgp6tROXILMXU-8" vertex="1" style="shape=partialRectangle;top=0;left=0;bottom=0;html=1;fillColor=none;align=left;verticalAlign=top;spacingLeft=4;spacingRight=4;whiteSpace=wrap;overflow=hidden;rotatable=0;points=[];portConstraint=eastwest;part=1;" connectable="0">
          <mxGeometry as="geometry" height="26" width="30"/>
        </mxCell>
        <mxCell id="PmstyWCTgp6tROXILMXU-10" value="ModifyBy" parent="2e49270ec7c68f3f-80" vertex="1" style="shape=partialRectangle;top=0;left=0;right=0;bottom=0;html=1;align=left;verticalAlign=top;fillColor=none;spacingLeft=34;spacingRight=4;whiteSpace=wrap;overflow=hidden;rotatable=0;points=[[0,0.5],[1,0.5]];portConstraint=eastwest;dropTarget=0;">
          <mxGeometry as="geometry" height="26" width="200" y="212"/>
        </mxCell>
        <mxCell id="PmstyWCTgp6tROXILMXU-11" value="" parent="PmstyWCTgp6tROXILMXU-10" vertex="1" style="shape=partialRectangle;top=0;left=0;bottom=0;html=1;fillColor=none;align=left;verticalAlign=top;spacingLeft=4;spacingRight=4;whiteSpace=wrap;overflow=hidden;rotatable=0;points=[];portConstraint=eastwest;part=1;" connectable="0">
          <mxGeometry as="geometry" height="26" width="30"/>
        </mxCell>
        <mxCell id="PmstyWCTgp6tROXILMXU-12" value="ModifyDate" parent="2e49270ec7c68f3f-80" vertex="1" style="shape=partialRectangle;top=0;left=0;right=0;bottom=0;html=1;align=left;verticalAlign=top;fillColor=none;spacingLeft=34;spacingRight=4;whiteSpace=wrap;overflow=hidden;rotatable=0;points=[[0,0.5],[1,0.5]];portConstraint=eastwest;dropTarget=0;">
          <mxGeometry as="geometry" height="26" width="200" y="238"/>
        </mxCell>
        <mxCell id="PmstyWCTgp6tROXILMXU-13" value="" parent="PmstyWCTgp6tROXILMXU-12" vertex="1" style="shape=partialRectangle;top=0;left=0;bottom=0;html=1;fillColor=none;align=left;verticalAlign=top;spacingLeft=4;spacingRight=4;whiteSpace=wrap;overflow=hidden;rotatable=0;points=[];portConstraint=eastwest;part=1;" connectable="0">
          <mxGeometry as="geometry" height="26" width="30"/>
        </mxCell>
        <mxCell id="PmstyWCTgp6tROXILMXU-1" value="Enabled" parent="2e49270ec7c68f3f-80" vertex="1" style="shape=partialRectangle;top=0;left=0;right=0;bottom=0;html=1;align=left;verticalAlign=top;fillColor=none;spacingLeft=34;spacingRight=4;whiteSpace=wrap;overflow=hidden;rotatable=0;points=[[0,0.5],[1,0.5]];portConstraint=eastwest;dropTarget=0;">
          <mxGeometry as="geometry" height="26" width="200" y="264"/>
        </mxCell>
        <mxCell id="PmstyWCTgp6tROXILMXU-2" value="" parent="PmstyWCTgp6tROXILMXU-1" vertex="1" style="shape=partialRectangle;top=0;left=0;bottom=0;html=1;fillColor=none;align=left;verticalAlign=top;spacingLeft=4;spacingRight=4;whiteSpace=wrap;overflow=hidden;rotatable=0;points=[];portConstraint=eastwest;part=1;" connectable="0">
          <mxGeometry as="geometry" height="26" width="30"/>
        </mxCell>
        <mxCell id="2e49270ec7c68f3f-89" value="" parent="2e49270ec7c68f3f-80" vertex="1" style="shape=partialRectangle;top=0;left=0;right=0;bottom=0;html=1;align=left;verticalAlign=top;fillColor=none;spacingLeft=34;spacingRight=4;whiteSpace=wrap;overflow=hidden;rotatable=0;points=[[0,0.5],[1,0.5]];portConstraint=eastwest;dropTarget=0;">
          <mxGeometry as="geometry" height="56" width="200" y="290"/>
        </mxCell>
        <mxCell id="2e49270ec7c68f3f-90" value="" parent="2e49270ec7c68f3f-89" vertex="1" style="shape=partialRectangle;top=0;left=0;bottom=0;html=1;fillColor=none;align=left;verticalAlign=top;spacingLeft=4;spacingRight=4;whiteSpace=wrap;overflow=hidden;rotatable=0;points=[];portConstraint=eastwest;part=1;" connectable="0">
          <mxGeometry as="geometry" height="56" width="30"/>
        </mxCell>
        <mxCell id="PmstyWCTgp6tROXILMXU-3" parent="1" style="edgeStyle=orthogonalEdgeStyle;rounded=0;orthogonalLoop=1;jettySize=auto;html=1;entryX=0;entryY=0.5;entryDx=0;entryDy=0;" edge="1" target="2e49270ec7c68f3f-49" source="2e49270ec7c68f3f-87">
          <mxGeometry as="geometry" relative="1">
            <Array as="points">
              <mxPoint y="768" x="340"/>
              <mxPoint y="968" x="340"/>
            </Array>
          </mxGeometry>
        </mxCell>
        <mxCell id="PmstyWCTgp6tROXILMXU-42" value="AuditEvent" parent="1" vertex="1" style="swimlane;html=1;fontStyle=0;childLayout=stackLayout;horizontal=1;startSize=26;fillColor=#e0e0e0;horizontalStack=0;resizeParent=1;resizeLast=0;collapsible=1;marginBottom=0;swimlaneFillColor=#ffffff;align=center;rounded=0;shadow=0;comic=0;labelBackgroundColor=none;strokeColor=#000000;strokeWidth=1;fontFamily=Verdana;fontSize=14;fontColor=#000000;">
          <mxGeometry as="geometry" height="140" width="160" y="270" x="460">
            <mxRectangle as="alternateBounds" height="26" width="140" y="580" x="290"/>
          </mxGeometry>
        </mxCell>
        <mxCell id="PmstyWCTgp6tROXILMXU-43" value="Id" parent="PmstyWCTgp6tROXILMXU-42" vertex="1" style="shape=partialRectangle;top=0;left=0;right=0;bottom=0;html=1;align=left;verticalAlign=middle;fillColor=none;spacingLeft=60;spacingRight=4;whiteSpace=wrap;overflow=hidden;rotatable=0;points=[[0,0.5],[1,0.5]];portConstraint=eastwest;dropTarget=0;fontStyle=5;">
          <mxGeometry as="geometry" height="30" width="160" y="26"/>
        </mxCell>
        <mxCell id="PmstyWCTgp6tROXILMXU-44" value="PK,FK1" parent="PmstyWCTgp6tROXILMXU-43" vertex="1" style="shape=partialRectangle;fontStyle=1;top=0;left=0;bottom=0;html=1;fillColor=none;align=left;verticalAlign=middle;spacingLeft=4;spacingRight=4;whiteSpace=wrap;overflow=hidden;rotatable=0;points=[];portConstraint=eastwest;part=1;" connectable="0">
          <mxGeometry as="geometry" height="30" width="56"/>
        </mxCell>
        <mxCell id="PmstyWCTgp6tROXILMXU-45" value="" parent="PmstyWCTgp6tROXILMXU-42" vertex="1" style="shape=partialRectangle;top=0;left=0;right=0;bottom=1;html=1;align=left;verticalAlign=middle;fillColor=none;spacingLeft=60;spacingRight=4;whiteSpace=wrap;overflow=hidden;rotatable=0;points=[[0,0.5],[1,0.5]];portConstraint=eastwest;dropTarget=0;fontStyle=5;">
          <mxGeometry as="geometry" height="30" width="160" y="56"/>
        </mxCell>
        <mxCell id="PmstyWCTgp6tROXILMXU-46" value="" parent="PmstyWCTgp6tROXILMXU-45" vertex="1" style="shape=partialRectangle;fontStyle=1;top=0;left=0;bottom=0;html=1;fillColor=none;align=left;verticalAlign=middle;spacingLeft=4;spacingRight=4;whiteSpace=wrap;overflow=hidden;rotatable=0;points=[];portConstraint=eastwest;part=1;" connectable="0">
          <mxGeometry as="geometry" height="30" width="56"/>
        </mxCell>
        <mxCell id="PmstyWCTgp6tROXILMXU-47" value="Name" parent="PmstyWCTgp6tROXILMXU-42" vertex="1" style="shape=partialRectangle;top=0;left=0;right=0;bottom=0;html=1;align=left;verticalAlign=top;fillColor=none;spacingLeft=60;spacingRight=4;whiteSpace=wrap;overflow=hidden;rotatable=0;points=[[0,0.5],[1,0.5]];portConstraint=eastwest;dropTarget=0;">
          <mxGeometry as="geometry" height="24" width="160" y="86"/>
        </mxCell>
        <mxCell id="PmstyWCTgp6tROXILMXU-48" value="" parent="PmstyWCTgp6tROXILMXU-47" vertex="1" style="shape=partialRectangle;top=0;left=0;bottom=0;html=1;fillColor=none;align=left;verticalAlign=top;spacingLeft=4;spacingRight=4;whiteSpace=wrap;overflow=hidden;rotatable=0;points=[];portConstraint=eastwest;part=1;" connectable="0">
          <mxGeometry as="geometry" height="24" width="56"/>
        </mxCell>
        <mxCell id="PmstyWCTgp6tROXILMXU-51" value="Description" parent="PmstyWCTgp6tROXILMXU-42" vertex="1" style="shape=partialRectangle;top=0;left=0;right=0;bottom=0;html=1;align=left;verticalAlign=top;fillColor=none;spacingLeft=60;spacingRight=4;whiteSpace=wrap;overflow=hidden;rotatable=0;points=[[0,0.5],[1,0.5]];portConstraint=eastwest;dropTarget=0;">
          <mxGeometry as="geometry" height="24" width="160" y="110"/>
        </mxCell>
        <mxCell id="PmstyWCTgp6tROXILMXU-52" value="" parent="PmstyWCTgp6tROXILMXU-51" vertex="1" style="shape=partialRectangle;top=0;left=0;bottom=0;html=1;fillColor=none;align=left;verticalAlign=top;spacingLeft=4;spacingRight=4;whiteSpace=wrap;overflow=hidden;rotatable=0;points=[];portConstraint=eastwest;part=1;" connectable="0">
          <mxGeometry as="geometry" height="24" width="56"/>
        </mxCell>
        <mxCell id="PmstyWCTgp6tROXILMXU-56" value="Node" parent="1" vertex="1" style="swimlane;html=1;fontStyle=0;childLayout=stackLayout;horizontal=1;startSize=16;fillColor=#e0e0e0;horizontalStack=0;resizeParent=1;resizeLast=0;collapsible=1;marginBottom=0;swimlaneFillColor=#ffffff;align=center;rounded=0;shadow=0;comic=0;labelBackgroundColor=none;strokeColor=#000000;strokeWidth=1;fontFamily=Verdana;fontSize=14;fontColor=#000000;">
          <mxGeometry as="geometry" height="302" width="160" y="140" x="940"/>
        </mxCell>
        <mxCell id="PmstyWCTgp6tROXILMXU-57" value="uniqueId" parent="PmstyWCTgp6tROXILMXU-56" vertex="1" style="shape=partialRectangle;top=0;left=0;right=0;bottom=0;html=1;align=left;verticalAlign=middle;fillColor=none;spacingLeft=60;spacingRight=4;whiteSpace=wrap;overflow=hidden;rotatable=0;points=[[0,0.5],[1,0.5]];portConstraint=eastwest;dropTarget=0;fontStyle=5;">
          <mxGeometry as="geometry" height="30" width="160" y="16"/>
        </mxCell>
        <mxCell id="PmstyWCTgp6tROXILMXU-58" value="PK" parent="PmstyWCTgp6tROXILMXU-57" vertex="1" style="shape=partialRectangle;fontStyle=1;top=0;left=0;bottom=0;html=1;fillColor=none;align=left;verticalAlign=middle;spacingLeft=4;spacingRight=4;whiteSpace=wrap;overflow=hidden;rotatable=0;points=[];portConstraint=eastwest;part=1;" connectable="0">
          <mxGeometry as="geometry" height="30" width="56"/>
        </mxCell>
        <mxCell id="PmstyWCTgp6tROXILMXU-59" value="" parent="PmstyWCTgp6tROXILMXU-56" vertex="1" style="shape=partialRectangle;top=0;left=0;right=0;bottom=1;html=1;align=left;verticalAlign=middle;fillColor=none;spacingLeft=60;spacingRight=4;whiteSpace=wrap;overflow=hidden;rotatable=0;points=[[0,0.5],[1,0.5]];portConstraint=eastwest;dropTarget=0;fontStyle=5;">
          <mxGeometry as="geometry" height="30" width="160" y="46"/>
        </mxCell>
        <mxCell id="PmstyWCTgp6tROXILMXU-60" value="" parent="PmstyWCTgp6tROXILMXU-59" vertex="1" style="shape=partialRectangle;fontStyle=1;top=0;left=0;bottom=0;html=1;fillColor=none;align=left;verticalAlign=middle;spacingLeft=4;spacingRight=4;whiteSpace=wrap;overflow=hidden;rotatable=0;points=[];portConstraint=eastwest;part=1;" connectable="0">
          <mxGeometry as="geometry" height="30" width="56"/>
        </mxCell>
        <mxCell id="PmstyWCTgp6tROXILMXU-61" value="Name&lt;br&gt;" parent="PmstyWCTgp6tROXILMXU-56" vertex="1" style="shape=partialRectangle;top=0;left=0;right=0;bottom=0;html=1;align=left;verticalAlign=top;fillColor=none;spacingLeft=60;spacingRight=4;whiteSpace=wrap;overflow=hidden;rotatable=0;points=[[0,0.5],[1,0.5]];portConstraint=eastwest;dropTarget=0;">
          <mxGeometry as="geometry" height="24" width="160" y="76"/>
        </mxCell>
        <mxCell id="PmstyWCTgp6tROXILMXU-62" value="" parent="PmstyWCTgp6tROXILMXU-61" vertex="1" style="shape=partialRectangle;top=0;left=0;bottom=0;html=1;fillColor=none;align=left;verticalAlign=top;spacingLeft=4;spacingRight=4;whiteSpace=wrap;overflow=hidden;rotatable=0;points=[];portConstraint=eastwest;part=1;" connectable="0">
          <mxGeometry as="geometry" height="24" width="56"/>
        </mxCell>
        <mxCell id="PmstyWCTgp6tROXILMXU-63" value="Description" parent="PmstyWCTgp6tROXILMXU-56" vertex="1" style="shape=partialRectangle;top=0;left=0;right=0;bottom=0;html=1;align=left;verticalAlign=top;fillColor=none;spacingLeft=60;spacingRight=4;whiteSpace=wrap;overflow=hidden;rotatable=0;points=[[0,0.5],[1,0.5]];portConstraint=eastwest;dropTarget=0;">
          <mxGeometry as="geometry" height="24" width="160" y="100"/>
        </mxCell>
        <mxCell id="PmstyWCTgp6tROXILMXU-64" value="" parent="PmstyWCTgp6tROXILMXU-63" vertex="1" style="shape=partialRectangle;top=0;left=0;bottom=0;html=1;fillColor=none;align=left;verticalAlign=top;spacingLeft=4;spacingRight=4;whiteSpace=wrap;overflow=hidden;rotatable=0;points=[];portConstraint=eastwest;part=1;" connectable="0">
          <mxGeometry as="geometry" height="24" width="56"/>
        </mxCell>
        <mxCell id="PmstyWCTgp6tROXILMXU-74" value="Uri" parent="PmstyWCTgp6tROXILMXU-56" vertex="1" style="shape=partialRectangle;top=0;left=0;right=0;bottom=0;html=1;align=left;verticalAlign=top;fillColor=none;spacingLeft=60;spacingRight=4;whiteSpace=wrap;overflow=hidden;rotatable=0;points=[[0,0.5],[1,0.5]];portConstraint=eastwest;dropTarget=0;">
          <mxGeometry as="geometry" height="24" width="160" y="124"/>
        </mxCell>
        <mxCell id="PmstyWCTgp6tROXILMXU-75" value="" parent="PmstyWCTgp6tROXILMXU-74" vertex="1" style="shape=partialRectangle;top=0;left=0;bottom=0;html=1;fillColor=none;align=left;verticalAlign=top;spacingLeft=4;spacingRight=4;whiteSpace=wrap;overflow=hidden;rotatable=0;points=[];portConstraint=eastwest;part=1;" connectable="0">
          <mxGeometry as="geometry" height="24" width="56"/>
        </mxCell>
        <mxCell id="PmstyWCTgp6tROXILMXU-76" value="TypeID" parent="PmstyWCTgp6tROXILMXU-56" vertex="1" style="shape=partialRectangle;top=0;left=0;right=0;bottom=0;html=1;align=left;verticalAlign=top;fillColor=none;spacingLeft=60;spacingRight=4;whiteSpace=wrap;overflow=hidden;rotatable=0;points=[[0,0.5],[1,0.5]];portConstraint=eastwest;dropTarget=0;">
          <mxGeometry as="geometry" height="24" width="160" y="148"/>
        </mxCell>
        <mxCell id="PmstyWCTgp6tROXILMXU-77" value="" parent="PmstyWCTgp6tROXILMXU-76" vertex="1" style="shape=partialRectangle;top=0;left=0;bottom=0;html=1;fillColor=none;align=left;verticalAlign=top;spacingLeft=4;spacingRight=4;whiteSpace=wrap;overflow=hidden;rotatable=0;points=[];portConstraint=eastwest;part=1;" connectable="0">
          <mxGeometry as="geometry" height="24" width="56"/>
        </mxCell>
        <mxCell id="PmstyWCTgp6tROXILMXU-78" value="Enabled" parent="PmstyWCTgp6tROXILMXU-56" vertex="1" style="shape=partialRectangle;top=0;left=0;right=0;bottom=0;html=1;align=left;verticalAlign=top;fillColor=none;spacingLeft=60;spacingRight=4;whiteSpace=wrap;overflow=hidden;rotatable=0;points=[[0,0.5],[1,0.5]];portConstraint=eastwest;dropTarget=0;">
          <mxGeometry as="geometry" height="24" width="160" y="172"/>
        </mxCell>
        <mxCell id="PmstyWCTgp6tROXILMXU-79" value="" parent="PmstyWCTgp6tROXILMXU-78" vertex="1" style="shape=partialRectangle;top=0;left=0;bottom=0;html=1;fillColor=none;align=left;verticalAlign=top;spacingLeft=4;spacingRight=4;whiteSpace=wrap;overflow=hidden;rotatable=0;points=[];portConstraint=eastwest;part=1;" connectable="0">
          <mxGeometry as="geometry" height="24" width="56"/>
        </mxCell>
        <mxCell id="PmstyWCTgp6tROXILMXU-65" value="CreatedBy" parent="PmstyWCTgp6tROXILMXU-56" vertex="1" style="shape=partialRectangle;top=0;left=0;right=0;bottom=0;html=1;align=left;verticalAlign=top;fillColor=none;spacingLeft=60;spacingRight=4;whiteSpace=wrap;overflow=hidden;rotatable=0;points=[[0,0.5],[1,0.5]];portConstraint=eastwest;dropTarget=0;">
          <mxGeometry as="geometry" height="24" width="160" y="196"/>
        </mxCell>
        <mxCell id="PmstyWCTgp6tROXILMXU-66" value="" parent="PmstyWCTgp6tROXILMXU-65" vertex="1" style="shape=partialRectangle;top=0;left=0;bottom=0;html=1;fillColor=none;align=left;verticalAlign=top;spacingLeft=4;spacingRight=4;whiteSpace=wrap;overflow=hidden;rotatable=0;points=[];portConstraint=eastwest;part=1;" connectable="0">
          <mxGeometry as="geometry" height="24" width="56"/>
        </mxCell>
        <mxCell id="PmstyWCTgp6tROXILMXU-67" value="ModifyBy" parent="PmstyWCTgp6tROXILMXU-56" vertex="1" style="shape=partialRectangle;top=0;left=0;right=0;bottom=0;html=1;align=left;verticalAlign=top;fillColor=none;spacingLeft=60;spacingRight=4;whiteSpace=wrap;overflow=hidden;rotatable=0;points=[[0,0.5],[1,0.5]];portConstraint=eastwest;dropTarget=0;">
          <mxGeometry as="geometry" height="24" width="160" y="220"/>
        </mxCell>
        <mxCell id="PmstyWCTgp6tROXILMXU-68" value="" parent="PmstyWCTgp6tROXILMXU-67" vertex="1" style="shape=partialRectangle;top=0;left=0;bottom=0;html=1;fillColor=none;align=left;verticalAlign=top;spacingLeft=4;spacingRight=4;whiteSpace=wrap;overflow=hidden;rotatable=0;points=[];portConstraint=eastwest;part=1;" connectable="0">
          <mxGeometry as="geometry" height="24" width="56"/>
        </mxCell>
        <mxCell id="PmstyWCTgp6tROXILMXU-69" value="CreatedDate" parent="PmstyWCTgp6tROXILMXU-56" vertex="1" style="shape=partialRectangle;top=0;left=0;right=0;bottom=0;html=1;align=left;verticalAlign=top;fillColor=none;spacingLeft=60;spacingRight=4;whiteSpace=wrap;overflow=hidden;rotatable=0;points=[[0,0.5],[1,0.5]];portConstraint=eastwest;dropTarget=0;">
          <mxGeometry as="geometry" height="24" width="160" y="244"/>
        </mxCell>
        <mxCell id="PmstyWCTgp6tROXILMXU-70" value="" parent="PmstyWCTgp6tROXILMXU-69" vertex="1" style="shape=partialRectangle;top=0;left=0;bottom=0;html=1;fillColor=none;align=left;verticalAlign=top;spacingLeft=4;spacingRight=4;whiteSpace=wrap;overflow=hidden;rotatable=0;points=[];portConstraint=eastwest;part=1;" connectable="0">
          <mxGeometry as="geometry" height="24" width="56"/>
        </mxCell>
        <mxCell id="PmstyWCTgp6tROXILMXU-71" value="ModifyDate" parent="PmstyWCTgp6tROXILMXU-56" vertex="1" style="shape=partialRectangle;top=0;left=0;right=0;bottom=0;html=1;align=left;verticalAlign=top;fillColor=none;spacingLeft=60;spacingRight=4;whiteSpace=wrap;overflow=hidden;rotatable=0;points=[[0,0.5],[1,0.5]];portConstraint=eastwest;dropTarget=0;">
          <mxGeometry as="geometry" height="24" width="160" y="268"/>
        </mxCell>
        <mxCell id="PmstyWCTgp6tROXILMXU-72" value="" parent="PmstyWCTgp6tROXILMXU-71" vertex="1" style="shape=partialRectangle;top=0;left=0;bottom=0;html=1;fillColor=none;align=left;verticalAlign=top;spacingLeft=4;spacingRight=4;whiteSpace=wrap;overflow=hidden;rotatable=0;points=[];portConstraint=eastwest;part=1;" connectable="0">
          <mxGeometry as="geometry" height="24" width="56"/>
        </mxCell>
        <mxCell id="PmstyWCTgp6tROXILMXU-80" value="NodeType" parent="1" vertex="1" style="swimlane;html=1;fontStyle=0;childLayout=stackLayout;horizontal=1;startSize=26;fillColor=#e0e0e0;horizontalStack=0;resizeParent=1;resizeLast=0;collapsible=1;marginBottom=0;swimlaneFillColor=#ffffff;align=center;rounded=0;shadow=0;comic=0;labelBackgroundColor=none;strokeColor=#000000;strokeWidth=1;fontFamily=Verdana;fontSize=14;fontColor=#000000;">
          <mxGeometry as="geometry" height="138" width="160" y="140" x="1180">
            <mxRectangle as="alternateBounds" height="26" width="140" y="580" x="290"/>
          </mxGeometry>
        </mxCell>
        <mxCell id="PmstyWCTgp6tROXILMXU-81" value="uniqueId" parent="PmstyWCTgp6tROXILMXU-80" vertex="1" style="shape=partialRectangle;top=0;left=0;right=0;bottom=0;html=1;align=left;verticalAlign=middle;fillColor=none;spacingLeft=60;spacingRight=4;whiteSpace=wrap;overflow=hidden;rotatable=0;points=[[0,0.5],[1,0.5]];portConstraint=eastwest;dropTarget=0;fontStyle=5;">
          <mxGeometry as="geometry" height="30" width="160" y="26"/>
        </mxCell>
        <mxCell id="PmstyWCTgp6tROXILMXU-82" value="PK,FK1" parent="PmstyWCTgp6tROXILMXU-81" vertex="1" style="shape=partialRectangle;fontStyle=1;top=0;left=0;bottom=0;html=1;fillColor=none;align=left;verticalAlign=middle;spacingLeft=4;spacingRight=4;whiteSpace=wrap;overflow=hidden;rotatable=0;points=[];portConstraint=eastwest;part=1;" connectable="0">
          <mxGeometry as="geometry" height="30" width="56"/>
        </mxCell>
        <mxCell id="PmstyWCTgp6tROXILMXU-83" value="" parent="PmstyWCTgp6tROXILMXU-80" vertex="1" style="shape=partialRectangle;top=0;left=0;right=0;bottom=1;html=1;align=left;verticalAlign=middle;fillColor=none;spacingLeft=60;spacingRight=4;whiteSpace=wrap;overflow=hidden;rotatable=0;points=[[0,0.5],[1,0.5]];portConstraint=eastwest;dropTarget=0;fontStyle=5;">
          <mxGeometry as="geometry" height="30" width="160" y="56"/>
        </mxCell>
        <mxCell id="PmstyWCTgp6tROXILMXU-84" value="" parent="PmstyWCTgp6tROXILMXU-83" vertex="1" style="shape=partialRectangle;fontStyle=1;top=0;left=0;bottom=0;html=1;fillColor=none;align=left;verticalAlign=middle;spacingLeft=4;spacingRight=4;whiteSpace=wrap;overflow=hidden;rotatable=0;points=[];portConstraint=eastwest;part=1;" connectable="0">
          <mxGeometry as="geometry" height="30" width="56"/>
        </mxCell>
        <mxCell id="PmstyWCTgp6tROXILMXU-85" value="Name" parent="PmstyWCTgp6tROXILMXU-80" vertex="1" style="shape=partialRectangle;top=0;left=0;right=0;bottom=0;html=1;align=left;verticalAlign=top;fillColor=none;spacingLeft=60;spacingRight=4;whiteSpace=wrap;overflow=hidden;rotatable=0;points=[[0,0.5],[1,0.5]];portConstraint=eastwest;dropTarget=0;">
          <mxGeometry as="geometry" height="24" width="160" y="86"/>
        </mxCell>
        <mxCell id="PmstyWCTgp6tROXILMXU-86" value="" parent="PmstyWCTgp6tROXILMXU-85" vertex="1" style="shape=partialRectangle;top=0;left=0;bottom=0;html=1;fillColor=none;align=left;verticalAlign=top;spacingLeft=4;spacingRight=4;whiteSpace=wrap;overflow=hidden;rotatable=0;points=[];portConstraint=eastwest;part=1;" connectable="0">
          <mxGeometry as="geometry" height="24" width="56"/>
        </mxCell>
        <mxCell id="PmstyWCTgp6tROXILMXU-87" value="Description" parent="PmstyWCTgp6tROXILMXU-80" vertex="1" style="shape=partialRectangle;top=0;left=0;right=0;bottom=0;html=1;align=left;verticalAlign=top;fillColor=none;spacingLeft=60;spacingRight=4;whiteSpace=wrap;overflow=hidden;rotatable=0;points=[[0,0.5],[1,0.5]];portConstraint=eastwest;dropTarget=0;">
          <mxGeometry as="geometry" height="24" width="160" y="110"/>
        </mxCell>
        <mxCell id="PmstyWCTgp6tROXILMXU-88" value="" parent="PmstyWCTgp6tROXILMXU-87" vertex="1" style="shape=partialRectangle;top=0;left=0;bottom=0;html=1;fillColor=none;align=left;verticalAlign=top;spacingLeft=4;spacingRight=4;whiteSpace=wrap;overflow=hidden;rotatable=0;points=[];portConstraint=eastwest;part=1;" connectable="0">
          <mxGeometry as="geometry" height="24" width="56"/>
        </mxCell>
        <mxCell id="PmstyWCTgp6tROXILMXU-90" parent="1" style="edgeStyle=orthogonalEdgeStyle;rounded=0;orthogonalLoop=1;jettySize=auto;html=1;entryX=-0.006;entryY=0.9;entryDx=0;entryDy=0;entryPerimeter=0;" edge="1" target="PmstyWCTgp6tROXILMXU-43" source="PmstyWCTgp6tROXILMXU-38">
          <mxGeometry as="geometry" relative="1"/>
        </mxCell>
        <mxCell id="PmstyWCTgp6tROXILMXU-91" value="Configuration" parent="1" vertex="1" style="swimlane;html=1;fontStyle=0;childLayout=stackLayout;horizontal=1;startSize=16;fillColor=#e0e0e0;horizontalStack=0;resizeParent=1;resizeLast=0;collapsible=1;marginBottom=0;swimlaneFillColor=#ffffff;align=center;rounded=0;shadow=0;comic=0;labelBackgroundColor=none;strokeColor=#000000;strokeWidth=1;fontFamily=Verdana;fontSize=14;fontColor=#000000;">
          <mxGeometry as="geometry" height="323" width="160" y="619" x="710"/>
        </mxCell>
        <mxCell id="PmstyWCTgp6tROXILMXU-92" value="uniqueId" parent="PmstyWCTgp6tROXILMXU-91" vertex="1" style="shape=partialRectangle;top=0;left=0;right=0;bottom=0;html=1;align=left;verticalAlign=middle;fillColor=none;spacingLeft=60;spacingRight=4;whiteSpace=wrap;overflow=hidden;rotatable=0;points=[[0,0.5],[1,0.5]];portConstraint=eastwest;dropTarget=0;fontStyle=5;">
          <mxGeometry as="geometry" height="30" width="160" y="16"/>
        </mxCell>
        <mxCell id="PmstyWCTgp6tROXILMXU-93" value="PK" parent="PmstyWCTgp6tROXILMXU-92" vertex="1" style="shape=partialRectangle;fontStyle=1;top=0;left=0;bottom=0;html=1;fillColor=none;align=left;verticalAlign=middle;spacingLeft=4;spacingRight=4;whiteSpace=wrap;overflow=hidden;rotatable=0;points=[];portConstraint=eastwest;part=1;" connectable="0">
          <mxGeometry as="geometry" height="30" width="56"/>
        </mxCell>
        <mxCell id="PmstyWCTgp6tROXILMXU-94" value="" parent="PmstyWCTgp6tROXILMXU-91" vertex="1" style="shape=partialRectangle;top=0;left=0;right=0;bottom=1;html=1;align=left;verticalAlign=middle;fillColor=none;spacingLeft=60;spacingRight=4;whiteSpace=wrap;overflow=hidden;rotatable=0;points=[[0,0.5],[1,0.5]];portConstraint=eastwest;dropTarget=0;fontStyle=5;">
          <mxGeometry as="geometry" height="30" width="160" y="46"/>
        </mxCell>
        <mxCell id="PmstyWCTgp6tROXILMXU-95" value="" parent="PmstyWCTgp6tROXILMXU-94" vertex="1" style="shape=partialRectangle;fontStyle=1;top=0;left=0;bottom=0;html=1;fillColor=none;align=left;verticalAlign=middle;spacingLeft=4;spacingRight=4;whiteSpace=wrap;overflow=hidden;rotatable=0;points=[];portConstraint=eastwest;part=1;" connectable="0">
          <mxGeometry as="geometry" height="30" width="56"/>
        </mxCell>
        <mxCell id="PmstyWCTgp6tROXILMXU-96" value="Name&lt;br&gt;" parent="PmstyWCTgp6tROXILMXU-91" vertex="1" style="shape=partialRectangle;top=0;left=0;right=0;bottom=0;html=1;align=left;verticalAlign=top;fillColor=none;spacingLeft=60;spacingRight=4;whiteSpace=wrap;overflow=hidden;rotatable=0;points=[[0,0.5],[1,0.5]];portConstraint=eastwest;dropTarget=0;">
          <mxGeometry as="geometry" height="24" width="160" y="76"/>
        </mxCell>
        <mxCell id="PmstyWCTgp6tROXILMXU-97" value="" parent="PmstyWCTgp6tROXILMXU-96" vertex="1" style="shape=partialRectangle;top=0;left=0;bottom=0;html=1;fillColor=none;align=left;verticalAlign=top;spacingLeft=4;spacingRight=4;whiteSpace=wrap;overflow=hidden;rotatable=0;points=[];portConstraint=eastwest;part=1;" connectable="0">
          <mxGeometry as="geometry" height="24" width="56"/>
        </mxCell>
        <mxCell id="PmstyWCTgp6tROXILMXU-98" value="Description" parent="PmstyWCTgp6tROXILMXU-91" vertex="1" style="shape=partialRectangle;top=0;left=0;right=0;bottom=0;html=1;align=left;verticalAlign=top;fillColor=none;spacingLeft=60;spacingRight=4;whiteSpace=wrap;overflow=hidden;rotatable=0;points=[[0,0.5],[1,0.5]];portConstraint=eastwest;dropTarget=0;">
          <mxGeometry as="geometry" height="24" width="160" y="100"/>
        </mxCell>
        <mxCell id="PmstyWCTgp6tROXILMXU-99" value="" parent="PmstyWCTgp6tROXILMXU-98" vertex="1" style="shape=partialRectangle;top=0;left=0;bottom=0;html=1;fillColor=none;align=left;verticalAlign=top;spacingLeft=4;spacingRight=4;whiteSpace=wrap;overflow=hidden;rotatable=0;points=[];portConstraint=eastwest;part=1;" connectable="0">
          <mxGeometry as="geometry" height="24" width="56"/>
        </mxCell>
        <mxCell id="PmstyWCTgp6tROXILMXU-102" value="TypeID" parent="PmstyWCTgp6tROXILMXU-91" vertex="1" style="shape=partialRectangle;top=0;left=0;right=0;bottom=0;html=1;align=left;verticalAlign=top;fillColor=none;spacingLeft=60;spacingRight=4;whiteSpace=wrap;overflow=hidden;rotatable=0;points=[[0,0.5],[1,0.5]];portConstraint=eastwest;dropTarget=0;">
          <mxGeometry as="geometry" height="24" width="160" y="124"/>
        </mxCell>
        <mxCell id="PmstyWCTgp6tROXILMXU-103" value="" parent="PmstyWCTgp6tROXILMXU-102" vertex="1" style="shape=partialRectangle;top=0;left=0;bottom=0;html=1;fillColor=none;align=left;verticalAlign=top;spacingLeft=4;spacingRight=4;whiteSpace=wrap;overflow=hidden;rotatable=0;points=[];portConstraint=eastwest;part=1;" connectable="0">
          <mxGeometry as="geometry" height="24" width="56"/>
        </mxCell>
        <mxCell id="SwsiR07pHhI11kPIutOl-61" value="ApplicationID" parent="PmstyWCTgp6tROXILMXU-91" vertex="1" style="shape=partialRectangle;top=0;left=0;right=0;bottom=0;html=1;align=left;verticalAlign=top;fillColor=none;spacingLeft=60;spacingRight=4;whiteSpace=wrap;overflow=hidden;rotatable=0;points=[[0,0.5],[1,0.5]];portConstraint=eastwest;dropTarget=0;">
          <mxGeometry as="geometry" height="26" width="160" y="148"/>
        </mxCell>
        <mxCell id="SwsiR07pHhI11kPIutOl-62" value="" parent="SwsiR07pHhI11kPIutOl-61" vertex="1" style="shape=partialRectangle;top=0;left=0;bottom=0;html=1;fillColor=none;align=left;verticalAlign=top;spacingLeft=4;spacingRight=4;whiteSpace=wrap;overflow=hidden;rotatable=0;points=[];portConstraint=eastwest;part=1;" connectable="0">
          <mxGeometry as="geometry" height="26" width="56"/>
        </mxCell>
        <mxCell id="SwsiR07pHhI11kPIutOl-63" value="TaskID" parent="PmstyWCTgp6tROXILMXU-91" vertex="1" style="shape=partialRectangle;top=0;left=0;right=0;bottom=0;html=1;align=left;verticalAlign=top;fillColor=none;spacingLeft=60;spacingRight=4;whiteSpace=wrap;overflow=hidden;rotatable=0;points=[[0,0.5],[1,0.5]];portConstraint=eastwest;dropTarget=0;">
          <mxGeometry as="geometry" height="26" width="160" y="174"/>
        </mxCell>
        <mxCell id="SwsiR07pHhI11kPIutOl-64" value="" parent="SwsiR07pHhI11kPIutOl-63" vertex="1" style="shape=partialRectangle;top=0;left=0;bottom=0;html=1;fillColor=none;align=left;verticalAlign=top;spacingLeft=4;spacingRight=4;whiteSpace=wrap;overflow=hidden;rotatable=0;points=[];portConstraint=eastwest;part=1;" connectable="0">
          <mxGeometry as="geometry" height="26" width="56"/>
        </mxCell>
        <mxCell id="PmstyWCTgp6tROXILMXU-104" value="Enabled" parent="PmstyWCTgp6tROXILMXU-91" vertex="1" style="shape=partialRectangle;top=0;left=0;right=0;bottom=0;html=1;align=left;verticalAlign=top;fillColor=none;spacingLeft=60;spacingRight=4;whiteSpace=wrap;overflow=hidden;rotatable=0;points=[[0,0.5],[1,0.5]];portConstraint=eastwest;dropTarget=0;">
          <mxGeometry as="geometry" height="24" width="160" y="200"/>
        </mxCell>
        <mxCell id="PmstyWCTgp6tROXILMXU-105" value="" parent="PmstyWCTgp6tROXILMXU-104" vertex="1" style="shape=partialRectangle;top=0;left=0;bottom=0;html=1;fillColor=none;align=left;verticalAlign=top;spacingLeft=4;spacingRight=4;whiteSpace=wrap;overflow=hidden;rotatable=0;points=[];portConstraint=eastwest;part=1;" connectable="0">
          <mxGeometry as="geometry" height="24" width="56"/>
        </mxCell>
        <mxCell id="PmstyWCTgp6tROXILMXU-106" value="CreatedBy" parent="PmstyWCTgp6tROXILMXU-91" vertex="1" style="shape=partialRectangle;top=0;left=0;right=0;bottom=0;html=1;align=left;verticalAlign=top;fillColor=none;spacingLeft=60;spacingRight=4;whiteSpace=wrap;overflow=hidden;rotatable=0;points=[[0,0.5],[1,0.5]];portConstraint=eastwest;dropTarget=0;">
          <mxGeometry as="geometry" height="24" width="160" y="224"/>
        </mxCell>
        <mxCell id="PmstyWCTgp6tROXILMXU-107" value="" parent="PmstyWCTgp6tROXILMXU-106" vertex="1" style="shape=partialRectangle;top=0;left=0;bottom=0;html=1;fillColor=none;align=left;verticalAlign=top;spacingLeft=4;spacingRight=4;whiteSpace=wrap;overflow=hidden;rotatable=0;points=[];portConstraint=eastwest;part=1;" connectable="0">
          <mxGeometry as="geometry" height="24" width="56"/>
        </mxCell>
        <mxCell id="PmstyWCTgp6tROXILMXU-108" value="ModifyBy" parent="PmstyWCTgp6tROXILMXU-91" vertex="1" style="shape=partialRectangle;top=0;left=0;right=0;bottom=0;html=1;align=left;verticalAlign=top;fillColor=none;spacingLeft=60;spacingRight=4;whiteSpace=wrap;overflow=hidden;rotatable=0;points=[[0,0.5],[1,0.5]];portConstraint=eastwest;dropTarget=0;">
          <mxGeometry as="geometry" height="24" width="160" y="248"/>
        </mxCell>
        <mxCell id="PmstyWCTgp6tROXILMXU-109" value="" parent="PmstyWCTgp6tROXILMXU-108" vertex="1" style="shape=partialRectangle;top=0;left=0;bottom=0;html=1;fillColor=none;align=left;verticalAlign=top;spacingLeft=4;spacingRight=4;whiteSpace=wrap;overflow=hidden;rotatable=0;points=[];portConstraint=eastwest;part=1;" connectable="0">
          <mxGeometry as="geometry" height="24" width="56"/>
        </mxCell>
        <mxCell id="PmstyWCTgp6tROXILMXU-110" value="CreatedDate" parent="PmstyWCTgp6tROXILMXU-91" vertex="1" style="shape=partialRectangle;top=0;left=0;right=0;bottom=0;html=1;align=left;verticalAlign=top;fillColor=none;spacingLeft=60;spacingRight=4;whiteSpace=wrap;overflow=hidden;rotatable=0;points=[[0,0.5],[1,0.5]];portConstraint=eastwest;dropTarget=0;">
          <mxGeometry as="geometry" height="24" width="160" y="272"/>
        </mxCell>
        <mxCell id="PmstyWCTgp6tROXILMXU-111" value="" parent="PmstyWCTgp6tROXILMXU-110" vertex="1" style="shape=partialRectangle;top=0;left=0;bottom=0;html=1;fillColor=none;align=left;verticalAlign=top;spacingLeft=4;spacingRight=4;whiteSpace=wrap;overflow=hidden;rotatable=0;points=[];portConstraint=eastwest;part=1;" connectable="0">
          <mxGeometry as="geometry" height="24" width="56"/>
        </mxCell>
        <mxCell id="PmstyWCTgp6tROXILMXU-112" value="ModifyDate" parent="PmstyWCTgp6tROXILMXU-91" vertex="1" style="shape=partialRectangle;top=0;left=0;right=0;bottom=0;html=1;align=left;verticalAlign=top;fillColor=none;spacingLeft=60;spacingRight=4;whiteSpace=wrap;overflow=hidden;rotatable=0;points=[[0,0.5],[1,0.5]];portConstraint=eastwest;dropTarget=0;">
          <mxGeometry as="geometry" height="26" width="160" y="296"/>
        </mxCell>
        <mxCell id="PmstyWCTgp6tROXILMXU-113" value="" parent="PmstyWCTgp6tROXILMXU-112" vertex="1" style="shape=partialRectangle;top=0;left=0;bottom=0;html=1;fillColor=none;align=left;verticalAlign=top;spacingLeft=4;spacingRight=4;whiteSpace=wrap;overflow=hidden;rotatable=0;points=[];portConstraint=eastwest;part=1;" connectable="0">
          <mxGeometry as="geometry" height="26" width="56"/>
        </mxCell>
        <mxCell id="PmstyWCTgp6tROXILMXU-114" value="ConfigurationType" parent="1" vertex="1" style="swimlane;html=1;fontStyle=0;childLayout=stackLayout;horizontal=1;startSize=26;fillColor=#e0e0e0;horizontalStack=0;resizeParent=1;resizeLast=0;collapsible=1;marginBottom=0;swimlaneFillColor=#ffffff;align=center;rounded=0;shadow=0;comic=0;labelBackgroundColor=none;strokeColor=#000000;strokeWidth=1;fontFamily=Verdana;fontSize=14;fontColor=#000000;">
          <mxGeometry as="geometry" height="138" width="160" y="972" x="710">
            <mxRectangle as="alternateBounds" height="26" width="140" y="580" x="290"/>
          </mxGeometry>
        </mxCell>
        <mxCell id="PmstyWCTgp6tROXILMXU-115" value="uniqueId" parent="PmstyWCTgp6tROXILMXU-114" vertex="1" style="shape=partialRectangle;top=0;left=0;right=0;bottom=0;html=1;align=left;verticalAlign=middle;fillColor=none;spacingLeft=60;spacingRight=4;whiteSpace=wrap;overflow=hidden;rotatable=0;points=[[0,0.5],[1,0.5]];portConstraint=eastwest;dropTarget=0;fontStyle=5;">
          <mxGeometry as="geometry" height="30" width="160" y="26"/>
        </mxCell>
        <mxCell id="PmstyWCTgp6tROXILMXU-116" value="PK,FK1" parent="PmstyWCTgp6tROXILMXU-115" vertex="1" style="shape=partialRectangle;fontStyle=1;top=0;left=0;bottom=0;html=1;fillColor=none;align=left;verticalAlign=middle;spacingLeft=4;spacingRight=4;whiteSpace=wrap;overflow=hidden;rotatable=0;points=[];portConstraint=eastwest;part=1;" connectable="0">
          <mxGeometry as="geometry" height="30" width="56"/>
        </mxCell>
        <mxCell id="PmstyWCTgp6tROXILMXU-117" value="" parent="PmstyWCTgp6tROXILMXU-114" vertex="1" style="shape=partialRectangle;top=0;left=0;right=0;bottom=1;html=1;align=left;verticalAlign=middle;fillColor=none;spacingLeft=60;spacingRight=4;whiteSpace=wrap;overflow=hidden;rotatable=0;points=[[0,0.5],[1,0.5]];portConstraint=eastwest;dropTarget=0;fontStyle=5;">
          <mxGeometry as="geometry" height="30" width="160" y="56"/>
        </mxCell>
        <mxCell id="PmstyWCTgp6tROXILMXU-118" value="" parent="PmstyWCTgp6tROXILMXU-117" vertex="1" style="shape=partialRectangle;fontStyle=1;top=0;left=0;bottom=0;html=1;fillColor=none;align=left;verticalAlign=middle;spacingLeft=4;spacingRight=4;whiteSpace=wrap;overflow=hidden;rotatable=0;points=[];portConstraint=eastwest;part=1;" connectable="0">
          <mxGeometry as="geometry" height="30" width="56"/>
        </mxCell>
        <mxCell id="PmstyWCTgp6tROXILMXU-119" value="Name" parent="PmstyWCTgp6tROXILMXU-114" vertex="1" style="shape=partialRectangle;top=0;left=0;right=0;bottom=0;html=1;align=left;verticalAlign=top;fillColor=none;spacingLeft=60;spacingRight=4;whiteSpace=wrap;overflow=hidden;rotatable=0;points=[[0,0.5],[1,0.5]];portConstraint=eastwest;dropTarget=0;">
          <mxGeometry as="geometry" height="24" width="160" y="86"/>
        </mxCell>
        <mxCell id="PmstyWCTgp6tROXILMXU-120" value="" parent="PmstyWCTgp6tROXILMXU-119" vertex="1" style="shape=partialRectangle;top=0;left=0;bottom=0;html=1;fillColor=none;align=left;verticalAlign=top;spacingLeft=4;spacingRight=4;whiteSpace=wrap;overflow=hidden;rotatable=0;points=[];portConstraint=eastwest;part=1;" connectable="0">
          <mxGeometry as="geometry" height="24" width="56"/>
        </mxCell>
        <mxCell id="PmstyWCTgp6tROXILMXU-121" value="Description" parent="PmstyWCTgp6tROXILMXU-114" vertex="1" style="shape=partialRectangle;top=0;left=0;right=0;bottom=0;html=1;align=left;verticalAlign=top;fillColor=none;spacingLeft=60;spacingRight=4;whiteSpace=wrap;overflow=hidden;rotatable=0;points=[[0,0.5],[1,0.5]];portConstraint=eastwest;dropTarget=0;">
          <mxGeometry as="geometry" height="24" width="160" y="110"/>
        </mxCell>
        <mxCell id="PmstyWCTgp6tROXILMXU-122" value="" parent="PmstyWCTgp6tROXILMXU-121" vertex="1" style="shape=partialRectangle;top=0;left=0;bottom=0;html=1;fillColor=none;align=left;verticalAlign=top;spacingLeft=4;spacingRight=4;whiteSpace=wrap;overflow=hidden;rotatable=0;points=[];portConstraint=eastwest;part=1;" connectable="0">
          <mxGeometry as="geometry" height="24" width="56"/>
        </mxCell>
        <mxCell id="PmstyWCTgp6tROXILMXU-123" parent="1" style="edgeStyle=orthogonalEdgeStyle;rounded=0;orthogonalLoop=1;jettySize=auto;html=1;entryX=-0.006;entryY=0.733;entryDx=0;entryDy=0;entryPerimeter=0;" edge="1" target="PmstyWCTgp6tROXILMXU-115" source="PmstyWCTgp6tROXILMXU-102">
          <mxGeometry as="geometry" relative="1"/>
        </mxCell>
        <mxCell id="PmstyWCTgp6tROXILMXU-159" value="User" parent="1" vertex="1" style="swimlane;html=1;fontStyle=0;childLayout=stackLayout;horizontal=1;startSize=16;fillColor=#e0e0e0;horizontalStack=0;resizeParent=1;resizeLast=0;collapsible=1;marginBottom=0;swimlaneFillColor=#ffffff;align=center;rounded=0;shadow=0;comic=0;labelBackgroundColor=none;strokeColor=#000000;strokeWidth=1;fontFamily=Verdana;fontSize=14;fontColor=#000000;">
          <mxGeometry as="geometry" height="270" width="160" y="1017" x="130"/>
        </mxCell>
        <mxCell id="PmstyWCTgp6tROXILMXU-160" value="uniqueId" parent="PmstyWCTgp6tROXILMXU-159" vertex="1" style="shape=partialRectangle;top=0;left=0;right=0;bottom=0;html=1;align=left;verticalAlign=middle;fillColor=none;spacingLeft=60;spacingRight=4;whiteSpace=wrap;overflow=hidden;rotatable=0;points=[[0,0.5],[1,0.5]];portConstraint=eastwest;dropTarget=0;fontStyle=5;">
          <mxGeometry as="geometry" height="30" width="160" y="16"/>
        </mxCell>
        <mxCell id="PmstyWCTgp6tROXILMXU-161" value="PK" parent="PmstyWCTgp6tROXILMXU-160" vertex="1" style="shape=partialRectangle;fontStyle=1;top=0;left=0;bottom=0;html=1;fillColor=none;align=left;verticalAlign=middle;spacingLeft=4;spacingRight=4;whiteSpace=wrap;overflow=hidden;rotatable=0;points=[];portConstraint=eastwest;part=1;" connectable="0">
          <mxGeometry as="geometry" height="30" width="56"/>
        </mxCell>
        <mxCell id="PmstyWCTgp6tROXILMXU-162" value="UserID" parent="PmstyWCTgp6tROXILMXU-159" vertex="1" style="shape=partialRectangle;top=0;left=0;right=0;bottom=1;html=1;align=left;verticalAlign=middle;fillColor=none;spacingLeft=60;spacingRight=4;whiteSpace=wrap;overflow=hidden;rotatable=0;points=[[0,0.5],[1,0.5]];portConstraint=eastwest;dropTarget=0;fontStyle=5;">
          <mxGeometry as="geometry" height="30" width="160" y="46"/>
        </mxCell>
        <mxCell id="PmstyWCTgp6tROXILMXU-163" value="PK;FK" parent="PmstyWCTgp6tROXILMXU-162" vertex="1" style="shape=partialRectangle;fontStyle=1;top=0;left=0;bottom=0;html=1;fillColor=none;align=left;verticalAlign=middle;spacingLeft=4;spacingRight=4;whiteSpace=wrap;overflow=hidden;rotatable=0;points=[];portConstraint=eastwest;part=1;" connectable="0">
          <mxGeometry as="geometry" height="30" width="56"/>
        </mxCell>
        <mxCell id="PmstyWCTgp6tROXILMXU-164" value="Name&lt;br&gt;" parent="PmstyWCTgp6tROXILMXU-159" vertex="1" style="shape=partialRectangle;top=0;left=0;right=0;bottom=0;html=1;align=left;verticalAlign=top;fillColor=none;spacingLeft=60;spacingRight=4;whiteSpace=wrap;overflow=hidden;rotatable=0;points=[[0,0.5],[1,0.5]];portConstraint=eastwest;dropTarget=0;">
          <mxGeometry as="geometry" height="24" width="160" y="76"/>
        </mxCell>
        <mxCell id="PmstyWCTgp6tROXILMXU-165" value="" parent="PmstyWCTgp6tROXILMXU-164" vertex="1" style="shape=partialRectangle;top=0;left=0;bottom=0;html=1;fillColor=none;align=left;verticalAlign=top;spacingLeft=4;spacingRight=4;whiteSpace=wrap;overflow=hidden;rotatable=0;points=[];portConstraint=eastwest;part=1;" connectable="0">
          <mxGeometry as="geometry" height="24" width="56"/>
        </mxCell>
        <mxCell id="PmstyWCTgp6tROXILMXU-166" value="Description" parent="PmstyWCTgp6tROXILMXU-159" vertex="1" style="shape=partialRectangle;top=0;left=0;right=0;bottom=0;html=1;align=left;verticalAlign=top;fillColor=none;spacingLeft=60;spacingRight=4;whiteSpace=wrap;overflow=hidden;rotatable=0;points=[[0,0.5],[1,0.5]];portConstraint=eastwest;dropTarget=0;">
          <mxGeometry as="geometry" height="24" width="160" y="100"/>
        </mxCell>
        <mxCell id="PmstyWCTgp6tROXILMXU-167" value="" parent="PmstyWCTgp6tROXILMXU-166" vertex="1" style="shape=partialRectangle;top=0;left=0;bottom=0;html=1;fillColor=none;align=left;verticalAlign=top;spacingLeft=4;spacingRight=4;whiteSpace=wrap;overflow=hidden;rotatable=0;points=[];portConstraint=eastwest;part=1;" connectable="0">
          <mxGeometry as="geometry" height="24" width="56"/>
        </mxCell>
        <mxCell id="PmstyWCTgp6tROXILMXU-185" value="RoleID" parent="PmstyWCTgp6tROXILMXU-159" vertex="1" style="shape=partialRectangle;top=0;left=0;right=0;bottom=0;html=1;align=left;verticalAlign=top;fillColor=none;spacingLeft=60;spacingRight=4;whiteSpace=wrap;overflow=hidden;rotatable=0;points=[[0,0.5],[1,0.5]];portConstraint=eastwest;dropTarget=0;">
          <mxGeometry as="geometry" height="24" width="160" y="124"/>
        </mxCell>
        <mxCell id="PmstyWCTgp6tROXILMXU-186" value="" parent="PmstyWCTgp6tROXILMXU-185" vertex="1" style="shape=partialRectangle;top=0;left=0;bottom=0;html=1;fillColor=none;align=left;verticalAlign=top;spacingLeft=4;spacingRight=4;whiteSpace=wrap;overflow=hidden;rotatable=0;points=[];portConstraint=eastwest;part=1;" connectable="0">
          <mxGeometry as="geometry" height="24" width="56"/>
        </mxCell>
        <mxCell id="PmstyWCTgp6tROXILMXU-172" value="Enabled" parent="PmstyWCTgp6tROXILMXU-159" vertex="1" style="shape=partialRectangle;top=0;left=0;right=0;bottom=0;html=1;align=left;verticalAlign=top;fillColor=none;spacingLeft=60;spacingRight=4;whiteSpace=wrap;overflow=hidden;rotatable=0;points=[[0,0.5],[1,0.5]];portConstraint=eastwest;dropTarget=0;">
          <mxGeometry as="geometry" height="24" width="160" y="148"/>
        </mxCell>
        <mxCell id="PmstyWCTgp6tROXILMXU-173" value="" parent="PmstyWCTgp6tROXILMXU-172" vertex="1" style="shape=partialRectangle;top=0;left=0;bottom=0;html=1;fillColor=none;align=left;verticalAlign=top;spacingLeft=4;spacingRight=4;whiteSpace=wrap;overflow=hidden;rotatable=0;points=[];portConstraint=eastwest;part=1;" connectable="0">
          <mxGeometry as="geometry" height="24" width="56"/>
        </mxCell>
        <mxCell id="PmstyWCTgp6tROXILMXU-174" value="CreatedBy" parent="PmstyWCTgp6tROXILMXU-159" vertex="1" style="shape=partialRectangle;top=0;left=0;right=0;bottom=0;html=1;align=left;verticalAlign=top;fillColor=none;spacingLeft=60;spacingRight=4;whiteSpace=wrap;overflow=hidden;rotatable=0;points=[[0,0.5],[1,0.5]];portConstraint=eastwest;dropTarget=0;">
          <mxGeometry as="geometry" height="24" width="160" y="172"/>
        </mxCell>
        <mxCell id="PmstyWCTgp6tROXILMXU-175" value="" parent="PmstyWCTgp6tROXILMXU-174" vertex="1" style="shape=partialRectangle;top=0;left=0;bottom=0;html=1;fillColor=none;align=left;verticalAlign=top;spacingLeft=4;spacingRight=4;whiteSpace=wrap;overflow=hidden;rotatable=0;points=[];portConstraint=eastwest;part=1;" connectable="0">
          <mxGeometry as="geometry" height="24" width="56"/>
        </mxCell>
        <mxCell id="PmstyWCTgp6tROXILMXU-176" value="ModifyBy" parent="PmstyWCTgp6tROXILMXU-159" vertex="1" style="shape=partialRectangle;top=0;left=0;right=0;bottom=0;html=1;align=left;verticalAlign=top;fillColor=none;spacingLeft=60;spacingRight=4;whiteSpace=wrap;overflow=hidden;rotatable=0;points=[[0,0.5],[1,0.5]];portConstraint=eastwest;dropTarget=0;">
          <mxGeometry as="geometry" height="24" width="160" y="196"/>
        </mxCell>
        <mxCell id="PmstyWCTgp6tROXILMXU-177" value="" parent="PmstyWCTgp6tROXILMXU-176" vertex="1" style="shape=partialRectangle;top=0;left=0;bottom=0;html=1;fillColor=none;align=left;verticalAlign=top;spacingLeft=4;spacingRight=4;whiteSpace=wrap;overflow=hidden;rotatable=0;points=[];portConstraint=eastwest;part=1;" connectable="0">
          <mxGeometry as="geometry" height="24" width="56"/>
        </mxCell>
        <mxCell id="PmstyWCTgp6tROXILMXU-178" value="CreatedDate" parent="PmstyWCTgp6tROXILMXU-159" vertex="1" style="shape=partialRectangle;top=0;left=0;right=0;bottom=0;html=1;align=left;verticalAlign=top;fillColor=none;spacingLeft=60;spacingRight=4;whiteSpace=wrap;overflow=hidden;rotatable=0;points=[[0,0.5],[1,0.5]];portConstraint=eastwest;dropTarget=0;">
          <mxGeometry as="geometry" height="24" width="160" y="220"/>
        </mxCell>
        <mxCell id="PmstyWCTgp6tROXILMXU-179" value="" parent="PmstyWCTgp6tROXILMXU-178" vertex="1" style="shape=partialRectangle;top=0;left=0;bottom=0;html=1;fillColor=none;align=left;verticalAlign=top;spacingLeft=4;spacingRight=4;whiteSpace=wrap;overflow=hidden;rotatable=0;points=[];portConstraint=eastwest;part=1;" connectable="0">
          <mxGeometry as="geometry" height="24" width="56"/>
        </mxCell>
        <mxCell id="PmstyWCTgp6tROXILMXU-180" value="ModifyDate" parent="PmstyWCTgp6tROXILMXU-159" vertex="1" style="shape=partialRectangle;top=0;left=0;right=0;bottom=0;html=1;align=left;verticalAlign=top;fillColor=none;spacingLeft=60;spacingRight=4;whiteSpace=wrap;overflow=hidden;rotatable=0;points=[[0,0.5],[1,0.5]];portConstraint=eastwest;dropTarget=0;">
          <mxGeometry as="geometry" height="24" width="160" y="244"/>
        </mxCell>
        <mxCell id="PmstyWCTgp6tROXILMXU-181" value="" parent="PmstyWCTgp6tROXILMXU-180" vertex="1" style="shape=partialRectangle;top=0;left=0;bottom=0;html=1;fillColor=none;align=left;verticalAlign=top;spacingLeft=4;spacingRight=4;whiteSpace=wrap;overflow=hidden;rotatable=0;points=[];portConstraint=eastwest;part=1;" connectable="0">
          <mxGeometry as="geometry" height="24" width="56"/>
        </mxCell>
        <mxCell id="PmstyWCTgp6tROXILMXU-184" parent="1" style="edgeStyle=orthogonalEdgeStyle;rounded=0;orthogonalLoop=1;jettySize=auto;html=1;entryX=1;entryY=0.5;entryDx=0;entryDy=0;" edge="1" target="PmstyWCTgp6tROXILMXU-162" source="PmstyWCTgp6tROXILMXU-24">
          <mxGeometry as="geometry" relative="1"/>
        </mxCell>
        <mxCell id="PmstyWCTgp6tROXILMXU-187" value="Rol" parent="1" vertex="1" style="swimlane;html=1;fontStyle=0;childLayout=stackLayout;horizontal=1;startSize=26;fillColor=#e0e0e0;horizontalStack=0;resizeParent=1;resizeLast=0;collapsible=1;marginBottom=0;swimlaneFillColor=#ffffff;align=center;rounded=0;shadow=0;comic=0;labelBackgroundColor=none;strokeColor=#000000;strokeWidth=1;fontFamily=Verdana;fontSize=14;fontColor=#000000;">
          <mxGeometry as="geometry" height="158" width="160" y="1101.5" x="450">
            <mxRectangle as="alternateBounds" height="26" width="140" y="580" x="290"/>
          </mxGeometry>
        </mxCell>
        <mxCell id="PmstyWCTgp6tROXILMXU-188" value="uniqueId" parent="PmstyWCTgp6tROXILMXU-187" vertex="1" style="shape=partialRectangle;top=0;left=0;right=0;bottom=0;html=1;align=left;verticalAlign=middle;fillColor=none;spacingLeft=60;spacingRight=4;whiteSpace=wrap;overflow=hidden;rotatable=0;points=[[0,0.5],[1,0.5]];portConstraint=eastwest;dropTarget=0;fontStyle=5;">
          <mxGeometry as="geometry" height="30" width="160" y="26"/>
        </mxCell>
        <mxCell id="PmstyWCTgp6tROXILMXU-189" value="PK,FK1" parent="PmstyWCTgp6tROXILMXU-188" vertex="1" style="shape=partialRectangle;fontStyle=1;top=0;left=0;bottom=0;html=1;fillColor=none;align=left;verticalAlign=middle;spacingLeft=4;spacingRight=4;whiteSpace=wrap;overflow=hidden;rotatable=0;points=[];portConstraint=eastwest;part=1;" connectable="0">
          <mxGeometry as="geometry" height="30" width="56"/>
        </mxCell>
        <mxCell id="PmstyWCTgp6tROXILMXU-190" value="" parent="PmstyWCTgp6tROXILMXU-187" vertex="1" style="shape=partialRectangle;top=0;left=0;right=0;bottom=1;html=1;align=left;verticalAlign=middle;fillColor=none;spacingLeft=60;spacingRight=4;whiteSpace=wrap;overflow=hidden;rotatable=0;points=[[0,0.5],[1,0.5]];portConstraint=eastwest;dropTarget=0;fontStyle=5;">
          <mxGeometry as="geometry" height="30" width="160" y="56"/>
        </mxCell>
        <mxCell id="PmstyWCTgp6tROXILMXU-191" value="" parent="PmstyWCTgp6tROXILMXU-190" vertex="1" style="shape=partialRectangle;fontStyle=1;top=0;left=0;bottom=0;html=1;fillColor=none;align=left;verticalAlign=middle;spacingLeft=4;spacingRight=4;whiteSpace=wrap;overflow=hidden;rotatable=0;points=[];portConstraint=eastwest;part=1;" connectable="0">
          <mxGeometry as="geometry" height="30" width="56"/>
        </mxCell>
        <mxCell id="PmstyWCTgp6tROXILMXU-192" value="Name" parent="PmstyWCTgp6tROXILMXU-187" vertex="1" style="shape=partialRectangle;top=0;left=0;right=0;bottom=0;html=1;align=left;verticalAlign=top;fillColor=none;spacingLeft=60;spacingRight=4;whiteSpace=wrap;overflow=hidden;rotatable=0;points=[[0,0.5],[1,0.5]];portConstraint=eastwest;dropTarget=0;">
          <mxGeometry as="geometry" height="24" width="160" y="86"/>
        </mxCell>
        <mxCell id="PmstyWCTgp6tROXILMXU-193" value="" parent="PmstyWCTgp6tROXILMXU-192" vertex="1" style="shape=partialRectangle;top=0;left=0;bottom=0;html=1;fillColor=none;align=left;verticalAlign=top;spacingLeft=4;spacingRight=4;whiteSpace=wrap;overflow=hidden;rotatable=0;points=[];portConstraint=eastwest;part=1;" connectable="0">
          <mxGeometry as="geometry" height="24" width="56"/>
        </mxCell>
        <mxCell id="PmstyWCTgp6tROXILMXU-194" value="Description" parent="PmstyWCTgp6tROXILMXU-187" vertex="1" style="shape=partialRectangle;top=0;left=0;right=0;bottom=0;html=1;align=left;verticalAlign=top;fillColor=none;spacingLeft=60;spacingRight=4;whiteSpace=wrap;overflow=hidden;rotatable=0;points=[[0,0.5],[1,0.5]];portConstraint=eastwest;dropTarget=0;">
          <mxGeometry as="geometry" height="24" width="160" y="110"/>
        </mxCell>
        <mxCell id="PmstyWCTgp6tROXILMXU-195" value="" parent="PmstyWCTgp6tROXILMXU-194" vertex="1" style="shape=partialRectangle;top=0;left=0;bottom=0;html=1;fillColor=none;align=left;verticalAlign=top;spacingLeft=4;spacingRight=4;whiteSpace=wrap;overflow=hidden;rotatable=0;points=[];portConstraint=eastwest;part=1;" connectable="0">
          <mxGeometry as="geometry" height="24" width="56"/>
        </mxCell>
        <mxCell id="SwsiR07pHhI11kPIutOl-177" value="ProfileID" parent="PmstyWCTgp6tROXILMXU-187" vertex="1" style="shape=partialRectangle;top=0;left=0;right=0;bottom=0;html=1;align=left;verticalAlign=top;fillColor=none;spacingLeft=60;spacingRight=4;whiteSpace=wrap;overflow=hidden;rotatable=0;points=[[0,0.5],[1,0.5]];portConstraint=eastwest;dropTarget=0;">
          <mxGeometry as="geometry" height="24" width="160" y="134"/>
        </mxCell>
        <mxCell id="SwsiR07pHhI11kPIutOl-178" value="" parent="SwsiR07pHhI11kPIutOl-177" vertex="1" style="shape=partialRectangle;top=0;left=0;bottom=0;html=1;fillColor=none;align=left;verticalAlign=top;spacingLeft=4;spacingRight=4;whiteSpace=wrap;overflow=hidden;rotatable=0;points=[];portConstraint=eastwest;part=1;" connectable="0">
          <mxGeometry as="geometry" height="24" width="56"/>
        </mxCell>
        <mxCell id="PmstyWCTgp6tROXILMXU-196" parent="1" style="edgeStyle=orthogonalEdgeStyle;rounded=0;orthogonalLoop=1;jettySize=auto;html=1;entryX=0.013;entryY=0.767;entryDx=0;entryDy=0;entryPerimeter=0;" edge="1" target="PmstyWCTgp6tROXILMXU-188" source="PmstyWCTgp6tROXILMXU-185">
          <mxGeometry as="geometry" relative="1"/>
        </mxCell>
        <mxCell id="PmstyWCTgp6tROXILMXU-197" value="Task" parent="1" vertex="1" style="swimlane;html=1;fontStyle=0;childLayout=stackLayout;horizontal=1;startSize=26;fillColor=#e0e0e0;horizontalStack=0;resizeParent=1;resizeLast=0;collapsible=1;marginBottom=0;swimlaneFillColor=#ffffff;align=center;rounded=0;shadow=0;comic=0;labelBackgroundColor=none;strokeColor=#000000;strokeWidth=1;fontFamily=Verdana;fontSize=14;fontColor=#000000;">
          <mxGeometry as="geometry" height="260" width="160" y="470" x="950">
            <mxRectangle as="alternateBounds" height="26" width="140" y="580" x="290"/>
          </mxGeometry>
        </mxCell>
        <mxCell id="PmstyWCTgp6tROXILMXU-202" value="Name" parent="PmstyWCTgp6tROXILMXU-197" vertex="1" style="shape=partialRectangle;top=0;left=0;right=0;bottom=0;html=1;align=left;verticalAlign=top;fillColor=none;spacingLeft=60;spacingRight=4;whiteSpace=wrap;overflow=hidden;rotatable=0;points=[[0,0.5],[1,0.5]];portConstraint=eastwest;dropTarget=0;">
          <mxGeometry as="geometry" height="24" width="160" y="26"/>
        </mxCell>
        <mxCell id="PmstyWCTgp6tROXILMXU-203" value="" parent="PmstyWCTgp6tROXILMXU-202" vertex="1" style="shape=partialRectangle;top=0;left=0;bottom=0;html=1;fillColor=none;align=left;verticalAlign=top;spacingLeft=4;spacingRight=4;whiteSpace=wrap;overflow=hidden;rotatable=0;points=[];portConstraint=eastwest;part=1;" connectable="0">
          <mxGeometry as="geometry" height="24" width="56"/>
        </mxCell>
        <mxCell id="PmstyWCTgp6tROXILMXU-204" value="Description" parent="PmstyWCTgp6tROXILMXU-197" vertex="1" style="shape=partialRectangle;top=0;left=0;right=0;bottom=0;html=1;align=left;verticalAlign=top;fillColor=none;spacingLeft=60;spacingRight=4;whiteSpace=wrap;overflow=hidden;rotatable=0;points=[[0,0.5],[1,0.5]];portConstraint=eastwest;dropTarget=0;">
          <mxGeometry as="geometry" height="30" width="160" y="50"/>
        </mxCell>
        <mxCell id="PmstyWCTgp6tROXILMXU-205" value="" parent="PmstyWCTgp6tROXILMXU-204" vertex="1" style="shape=partialRectangle;top=0;left=0;bottom=0;html=1;fillColor=none;align=left;verticalAlign=top;spacingLeft=4;spacingRight=4;whiteSpace=wrap;overflow=hidden;rotatable=0;points=[];portConstraint=eastwest;part=1;" connectable="0">
          <mxGeometry as="geometry" height="30" width="56"/>
        </mxCell>
        <mxCell id="PmstyWCTgp6tROXILMXU-206" value="Command" parent="PmstyWCTgp6tROXILMXU-197" vertex="1" style="shape=partialRectangle;top=0;left=0;right=0;bottom=0;html=1;align=left;verticalAlign=top;fillColor=none;spacingLeft=60;spacingRight=4;whiteSpace=wrap;overflow=hidden;rotatable=0;points=[[0,0.5],[1,0.5]];portConstraint=eastwest;dropTarget=0;">
          <mxGeometry as="geometry" height="30" width="160" y="80"/>
        </mxCell>
        <mxCell id="PmstyWCTgp6tROXILMXU-207" value="" parent="PmstyWCTgp6tROXILMXU-206" vertex="1" style="shape=partialRectangle;top=0;left=0;bottom=0;html=1;fillColor=none;align=left;verticalAlign=top;spacingLeft=4;spacingRight=4;whiteSpace=wrap;overflow=hidden;rotatable=0;points=[];portConstraint=eastwest;part=1;" connectable="0">
          <mxGeometry as="geometry" height="30" width="56"/>
        </mxCell>
        <mxCell id="PmstyWCTgp6tROXILMXU-212" value="StateID" parent="PmstyWCTgp6tROXILMXU-197" vertex="1" style="shape=partialRectangle;top=0;left=0;right=0;bottom=0;html=1;align=left;verticalAlign=top;fillColor=none;spacingLeft=60;spacingRight=4;whiteSpace=wrap;overflow=hidden;rotatable=0;points=[[0,0.5],[1,0.5]];portConstraint=eastwest;dropTarget=0;">
          <mxGeometry as="geometry" height="30" width="160" y="110"/>
        </mxCell>
        <mxCell id="PmstyWCTgp6tROXILMXU-213" value="" parent="PmstyWCTgp6tROXILMXU-212" vertex="1" style="shape=partialRectangle;top=0;left=0;bottom=0;html=1;fillColor=none;align=left;verticalAlign=top;spacingLeft=4;spacingRight=4;whiteSpace=wrap;overflow=hidden;rotatable=0;points=[];portConstraint=eastwest;part=1;" connectable="0">
          <mxGeometry as="geometry" height="30" width="56"/>
        </mxCell>
        <mxCell id="PmstyWCTgp6tROXILMXU-210" value="TypeID" parent="PmstyWCTgp6tROXILMXU-197" vertex="1" style="shape=partialRectangle;top=0;left=0;right=0;bottom=0;html=1;align=left;verticalAlign=top;fillColor=none;spacingLeft=60;spacingRight=4;whiteSpace=wrap;overflow=hidden;rotatable=0;points=[[0,0.5],[1,0.5]];portConstraint=eastwest;dropTarget=0;">
          <mxGeometry as="geometry" height="30" width="160" y="140"/>
        </mxCell>
        <mxCell id="PmstyWCTgp6tROXILMXU-211" value="" parent="PmstyWCTgp6tROXILMXU-210" vertex="1" style="shape=partialRectangle;top=0;left=0;bottom=0;html=1;fillColor=none;align=left;verticalAlign=top;spacingLeft=4;spacingRight=4;whiteSpace=wrap;overflow=hidden;rotatable=0;points=[];portConstraint=eastwest;part=1;" connectable="0">
          <mxGeometry as="geometry" height="30" width="56"/>
        </mxCell>
        <mxCell id="PmstyWCTgp6tROXILMXU-208" value="Enabled" parent="PmstyWCTgp6tROXILMXU-197" vertex="1" style="shape=partialRectangle;top=0;left=0;right=0;bottom=0;html=1;align=left;verticalAlign=top;fillColor=none;spacingLeft=60;spacingRight=4;whiteSpace=wrap;overflow=hidden;rotatable=0;points=[[0,0.5],[1,0.5]];portConstraint=eastwest;dropTarget=0;">
          <mxGeometry as="geometry" height="30" width="160" y="170"/>
        </mxCell>
        <mxCell id="PmstyWCTgp6tROXILMXU-209" value="" parent="PmstyWCTgp6tROXILMXU-208" vertex="1" style="shape=partialRectangle;top=0;left=0;bottom=0;html=1;fillColor=none;align=left;verticalAlign=top;spacingLeft=4;spacingRight=4;whiteSpace=wrap;overflow=hidden;rotatable=0;points=[];portConstraint=eastwest;part=1;" connectable="0">
          <mxGeometry as="geometry" height="30" width="56"/>
        </mxCell>
        <mxCell id="PmstyWCTgp6tROXILMXU-198" value="uniqueId" parent="PmstyWCTgp6tROXILMXU-197" vertex="1" style="shape=partialRectangle;top=0;left=0;right=0;bottom=0;html=1;align=left;verticalAlign=middle;fillColor=none;spacingLeft=60;spacingRight=4;whiteSpace=wrap;overflow=hidden;rotatable=0;points=[[0,0.5],[1,0.5]];portConstraint=eastwest;dropTarget=0;fontStyle=5;">
          <mxGeometry as="geometry" height="30" width="160" y="200"/>
        </mxCell>
        <mxCell id="PmstyWCTgp6tROXILMXU-199" value="PK,FK1" parent="PmstyWCTgp6tROXILMXU-198" vertex="1" style="shape=partialRectangle;fontStyle=1;top=0;left=0;bottom=0;html=1;fillColor=none;align=left;verticalAlign=middle;spacingLeft=4;spacingRight=4;whiteSpace=wrap;overflow=hidden;rotatable=0;points=[];portConstraint=eastwest;part=1;" connectable="0">
          <mxGeometry as="geometry" height="30" width="56"/>
        </mxCell>
        <mxCell id="PmstyWCTgp6tROXILMXU-200" value="" parent="PmstyWCTgp6tROXILMXU-197" vertex="1" style="shape=partialRectangle;top=0;left=0;right=0;bottom=1;html=1;align=left;verticalAlign=middle;fillColor=none;spacingLeft=60;spacingRight=4;whiteSpace=wrap;overflow=hidden;rotatable=0;points=[[0,0.5],[1,0.5]];portConstraint=eastwest;dropTarget=0;fontStyle=5;">
          <mxGeometry as="geometry" height="30" width="160" y="230"/>
        </mxCell>
        <mxCell id="PmstyWCTgp6tROXILMXU-201" value="" parent="PmstyWCTgp6tROXILMXU-200" vertex="1" style="shape=partialRectangle;fontStyle=1;top=0;left=0;bottom=0;html=1;fillColor=none;align=left;verticalAlign=middle;spacingLeft=4;spacingRight=4;whiteSpace=wrap;overflow=hidden;rotatable=0;points=[];portConstraint=eastwest;part=1;" connectable="0">
          <mxGeometry as="geometry" height="30" width="56"/>
        </mxCell>
        <mxCell id="SwsiR07pHhI11kPIutOl-83" value="Task" parent="1" vertex="1" style="swimlane;html=1;fontStyle=0;childLayout=stackLayout;horizontal=1;startSize=26;fillColor=#e0e0e0;horizontalStack=0;resizeParent=1;resizeLast=0;collapsible=1;marginBottom=0;swimlaneFillColor=#ffffff;align=center;rounded=0;shadow=0;comic=0;labelBackgroundColor=none;strokeColor=#000000;strokeWidth=1;fontFamily=Verdana;fontSize=14;fontColor=#000000;">
          <mxGeometry as="geometry" height="260" width="160" y="770" x="950">
            <mxRectangle as="alternateBounds" height="26" width="140" y="580" x="290"/>
          </mxGeometry>
        </mxCell>
        <mxCell id="SwsiR07pHhI11kPIutOl-84" value="uniqueId" parent="SwsiR07pHhI11kPIutOl-83" vertex="1" style="shape=partialRectangle;top=0;left=0;right=0;bottom=0;html=1;align=left;verticalAlign=middle;fillColor=none;spacingLeft=60;spacingRight=4;whiteSpace=wrap;overflow=hidden;rotatable=0;points=[[0,0.5],[1,0.5]];portConstraint=eastwest;dropTarget=0;fontStyle=5;">
          <mxGeometry as="geometry" height="30" width="160" y="26"/>
        </mxCell>
        <mxCell id="SwsiR07pHhI11kPIutOl-85" value="PK,FK1" parent="SwsiR07pHhI11kPIutOl-84" vertex="1" style="shape=partialRectangle;fontStyle=1;top=0;left=0;bottom=0;html=1;fillColor=none;align=left;verticalAlign=middle;spacingLeft=4;spacingRight=4;whiteSpace=wrap;overflow=hidden;rotatable=0;points=[];portConstraint=eastwest;part=1;" connectable="0">
          <mxGeometry as="geometry" height="30" width="56"/>
        </mxCell>
        <mxCell id="SwsiR07pHhI11kPIutOl-86" value="" parent="SwsiR07pHhI11kPIutOl-83" vertex="1" style="shape=partialRectangle;top=0;left=0;right=0;bottom=1;html=1;align=left;verticalAlign=middle;fillColor=none;spacingLeft=60;spacingRight=4;whiteSpace=wrap;overflow=hidden;rotatable=0;points=[[0,0.5],[1,0.5]];portConstraint=eastwest;dropTarget=0;fontStyle=5;">
          <mxGeometry as="geometry" height="30" width="160" y="56"/>
        </mxCell>
        <mxCell id="SwsiR07pHhI11kPIutOl-87" value="" parent="SwsiR07pHhI11kPIutOl-86" vertex="1" style="shape=partialRectangle;fontStyle=1;top=0;left=0;bottom=0;html=1;fillColor=none;align=left;verticalAlign=middle;spacingLeft=4;spacingRight=4;whiteSpace=wrap;overflow=hidden;rotatable=0;points=[];portConstraint=eastwest;part=1;" connectable="0">
          <mxGeometry as="geometry" height="30" width="56"/>
        </mxCell>
        <mxCell id="SwsiR07pHhI11kPIutOl-88" value="Name" parent="SwsiR07pHhI11kPIutOl-83" vertex="1" style="shape=partialRectangle;top=0;left=0;right=0;bottom=0;html=1;align=left;verticalAlign=top;fillColor=none;spacingLeft=60;spacingRight=4;whiteSpace=wrap;overflow=hidden;rotatable=0;points=[[0,0.5],[1,0.5]];portConstraint=eastwest;dropTarget=0;">
          <mxGeometry as="geometry" height="24" width="160" y="86"/>
        </mxCell>
        <mxCell id="SwsiR07pHhI11kPIutOl-89" value="" parent="SwsiR07pHhI11kPIutOl-88" vertex="1" style="shape=partialRectangle;top=0;left=0;bottom=0;html=1;fillColor=none;align=left;verticalAlign=top;spacingLeft=4;spacingRight=4;whiteSpace=wrap;overflow=hidden;rotatable=0;points=[];portConstraint=eastwest;part=1;" connectable="0">
          <mxGeometry as="geometry" height="24" width="56"/>
        </mxCell>
        <mxCell id="SwsiR07pHhI11kPIutOl-90" value="Description" parent="SwsiR07pHhI11kPIutOl-83" vertex="1" style="shape=partialRectangle;top=0;left=0;right=0;bottom=0;html=1;align=left;verticalAlign=top;fillColor=none;spacingLeft=60;spacingRight=4;whiteSpace=wrap;overflow=hidden;rotatable=0;points=[[0,0.5],[1,0.5]];portConstraint=eastwest;dropTarget=0;">
          <mxGeometry as="geometry" height="30" width="160" y="110"/>
        </mxCell>
        <mxCell id="SwsiR07pHhI11kPIutOl-91" value="" parent="SwsiR07pHhI11kPIutOl-90" vertex="1" style="shape=partialRectangle;top=0;left=0;bottom=0;html=1;fillColor=none;align=left;verticalAlign=top;spacingLeft=4;spacingRight=4;whiteSpace=wrap;overflow=hidden;rotatable=0;points=[];portConstraint=eastwest;part=1;" connectable="0">
          <mxGeometry as="geometry" height="30" width="56"/>
        </mxCell>
        <mxCell id="SwsiR07pHhI11kPIutOl-92" value="Command" parent="SwsiR07pHhI11kPIutOl-83" vertex="1" style="shape=partialRectangle;top=0;left=0;right=0;bottom=0;html=1;align=left;verticalAlign=top;fillColor=none;spacingLeft=60;spacingRight=4;whiteSpace=wrap;overflow=hidden;rotatable=0;points=[[0,0.5],[1,0.5]];portConstraint=eastwest;dropTarget=0;">
          <mxGeometry as="geometry" height="30" width="160" y="140"/>
        </mxCell>
        <mxCell id="SwsiR07pHhI11kPIutOl-93" value="" parent="SwsiR07pHhI11kPIutOl-92" vertex="1" style="shape=partialRectangle;top=0;left=0;bottom=0;html=1;fillColor=none;align=left;verticalAlign=top;spacingLeft=4;spacingRight=4;whiteSpace=wrap;overflow=hidden;rotatable=0;points=[];portConstraint=eastwest;part=1;" connectable="0">
          <mxGeometry as="geometry" height="30" width="56"/>
        </mxCell>
        <mxCell id="SwsiR07pHhI11kPIutOl-94" value="StateID" parent="SwsiR07pHhI11kPIutOl-83" vertex="1" style="shape=partialRectangle;top=0;left=0;right=0;bottom=0;html=1;align=left;verticalAlign=top;fillColor=none;spacingLeft=60;spacingRight=4;whiteSpace=wrap;overflow=hidden;rotatable=0;points=[[0,0.5],[1,0.5]];portConstraint=eastwest;dropTarget=0;">
          <mxGeometry as="geometry" height="30" width="160" y="170"/>
        </mxCell>
        <mxCell id="SwsiR07pHhI11kPIutOl-95" value="" parent="SwsiR07pHhI11kPIutOl-94" vertex="1" style="shape=partialRectangle;top=0;left=0;bottom=0;html=1;fillColor=none;align=left;verticalAlign=top;spacingLeft=4;spacingRight=4;whiteSpace=wrap;overflow=hidden;rotatable=0;points=[];portConstraint=eastwest;part=1;" connectable="0">
          <mxGeometry as="geometry" height="30" width="56"/>
        </mxCell>
        <mxCell id="SwsiR07pHhI11kPIutOl-96" value="TypeID" parent="SwsiR07pHhI11kPIutOl-83" vertex="1" style="shape=partialRectangle;top=0;left=0;right=0;bottom=0;html=1;align=left;verticalAlign=top;fillColor=none;spacingLeft=60;spacingRight=4;whiteSpace=wrap;overflow=hidden;rotatable=0;points=[[0,0.5],[1,0.5]];portConstraint=eastwest;dropTarget=0;">
          <mxGeometry as="geometry" height="30" width="160" y="200"/>
        </mxCell>
        <mxCell id="SwsiR07pHhI11kPIutOl-97" value="" parent="SwsiR07pHhI11kPIutOl-96" vertex="1" style="shape=partialRectangle;top=0;left=0;bottom=0;html=1;fillColor=none;align=left;verticalAlign=top;spacingLeft=4;spacingRight=4;whiteSpace=wrap;overflow=hidden;rotatable=0;points=[];portConstraint=eastwest;part=1;" connectable="0">
          <mxGeometry as="geometry" height="30" width="56"/>
        </mxCell>
        <mxCell id="SwsiR07pHhI11kPIutOl-98" value="Enabled" parent="SwsiR07pHhI11kPIutOl-83" vertex="1" style="shape=partialRectangle;top=0;left=0;right=0;bottom=0;html=1;align=left;verticalAlign=top;fillColor=none;spacingLeft=60;spacingRight=4;whiteSpace=wrap;overflow=hidden;rotatable=0;points=[[0,0.5],[1,0.5]];portConstraint=eastwest;dropTarget=0;">
          <mxGeometry as="geometry" height="30" width="160" y="230"/>
        </mxCell>
        <mxCell id="SwsiR07pHhI11kPIutOl-99" value="" parent="SwsiR07pHhI11kPIutOl-98" vertex="1" style="shape=partialRectangle;top=0;left=0;bottom=0;html=1;fillColor=none;align=left;verticalAlign=top;spacingLeft=4;spacingRight=4;whiteSpace=wrap;overflow=hidden;rotatable=0;points=[];portConstraint=eastwest;part=1;" connectable="0">
          <mxGeometry as="geometry" height="30" width="56"/>
        </mxCell>
        <mxCell id="PmstyWCTgp6tROXILMXU-214" value="TaskState" parent="1" vertex="1" style="swimlane;html=1;fontStyle=0;childLayout=stackLayout;horizontal=1;startSize=26;fillColor=#e0e0e0;horizontalStack=0;resizeParent=1;resizeLast=0;collapsible=1;marginBottom=0;swimlaneFillColor=#ffffff;align=center;rounded=0;shadow=0;comic=0;labelBackgroundColor=none;strokeColor=#000000;strokeWidth=1;fontFamily=Verdana;fontSize=14;fontColor=#000000;">
          <mxGeometry as="geometry" height="141" width="160" y="430" x="1200">
            <mxRectangle as="alternateBounds" height="26" width="140" y="580" x="290"/>
          </mxGeometry>
        </mxCell>
        <mxCell id="PmstyWCTgp6tROXILMXU-215" value="uniqueId" parent="PmstyWCTgp6tROXILMXU-214" vertex="1" style="shape=partialRectangle;top=0;left=0;right=0;bottom=0;html=1;align=left;verticalAlign=middle;fillColor=none;spacingLeft=60;spacingRight=4;whiteSpace=wrap;overflow=hidden;rotatable=0;points=[[0,0.5],[1,0.5]];portConstraint=eastwest;dropTarget=0;fontStyle=5;">
          <mxGeometry as="geometry" height="30" width="160" y="26"/>
        </mxCell>
        <mxCell id="PmstyWCTgp6tROXILMXU-216" value="PK,FK1" parent="PmstyWCTgp6tROXILMXU-215" vertex="1" style="shape=partialRectangle;fontStyle=1;top=0;left=0;bottom=0;html=1;fillColor=none;align=left;verticalAlign=middle;spacingLeft=4;spacingRight=4;whiteSpace=wrap;overflow=hidden;rotatable=0;points=[];portConstraint=eastwest;part=1;" connectable="0">
          <mxGeometry as="geometry" height="30" width="56"/>
        </mxCell>
        <mxCell id="PmstyWCTgp6tROXILMXU-217" value="" parent="PmstyWCTgp6tROXILMXU-214" vertex="1" style="shape=partialRectangle;top=0;left=0;right=0;bottom=1;html=1;align=left;verticalAlign=middle;fillColor=none;spacingLeft=60;spacingRight=4;whiteSpace=wrap;overflow=hidden;rotatable=0;points=[[0,0.5],[1,0.5]];portConstraint=eastwest;dropTarget=0;fontStyle=5;">
          <mxGeometry as="geometry" height="30" width="160" y="56"/>
        </mxCell>
        <mxCell id="PmstyWCTgp6tROXILMXU-218" value="" parent="PmstyWCTgp6tROXILMXU-217" vertex="1" style="shape=partialRectangle;fontStyle=1;top=0;left=0;bottom=0;html=1;fillColor=none;align=left;verticalAlign=middle;spacingLeft=4;spacingRight=4;whiteSpace=wrap;overflow=hidden;rotatable=0;points=[];portConstraint=eastwest;part=1;" connectable="0">
          <mxGeometry as="geometry" height="30" width="56"/>
        </mxCell>
        <mxCell id="PmstyWCTgp6tROXILMXU-219" value="Name" parent="PmstyWCTgp6tROXILMXU-214" vertex="1" style="shape=partialRectangle;top=0;left=0;right=0;bottom=0;html=1;align=left;verticalAlign=top;fillColor=none;spacingLeft=60;spacingRight=4;whiteSpace=wrap;overflow=hidden;rotatable=0;points=[[0,0.5],[1,0.5]];portConstraint=eastwest;dropTarget=0;">
          <mxGeometry as="geometry" height="24" width="160" y="86"/>
        </mxCell>
        <mxCell id="PmstyWCTgp6tROXILMXU-220" value="" parent="PmstyWCTgp6tROXILMXU-219" vertex="1" style="shape=partialRectangle;top=0;left=0;bottom=0;html=1;fillColor=none;align=left;verticalAlign=top;spacingLeft=4;spacingRight=4;whiteSpace=wrap;overflow=hidden;rotatable=0;points=[];portConstraint=eastwest;part=1;" connectable="0">
          <mxGeometry as="geometry" height="24" width="56"/>
        </mxCell>
        <mxCell id="PmstyWCTgp6tROXILMXU-221" value="Description" parent="PmstyWCTgp6tROXILMXU-214" vertex="1" style="shape=partialRectangle;top=0;left=0;right=0;bottom=0;html=1;align=left;verticalAlign=top;fillColor=none;spacingLeft=60;spacingRight=4;whiteSpace=wrap;overflow=hidden;rotatable=0;points=[[0,0.5],[1,0.5]];portConstraint=eastwest;dropTarget=0;">
          <mxGeometry as="geometry" height="24" width="160" y="110"/>
        </mxCell>
        <mxCell id="PmstyWCTgp6tROXILMXU-222" value="" parent="PmstyWCTgp6tROXILMXU-221" vertex="1" style="shape=partialRectangle;top=0;left=0;bottom=0;html=1;fillColor=none;align=left;verticalAlign=top;spacingLeft=4;spacingRight=4;whiteSpace=wrap;overflow=hidden;rotatable=0;points=[];portConstraint=eastwest;part=1;" connectable="0">
          <mxGeometry as="geometry" height="24" width="56"/>
        </mxCell>
        <mxCell id="PmstyWCTgp6tROXILMXU-223" value="TaskType" parent="1" vertex="1" style="swimlane;html=1;fontStyle=0;childLayout=stackLayout;horizontal=1;startSize=26;fillColor=#e0e0e0;horizontalStack=0;resizeParent=1;resizeLast=0;collapsible=1;marginBottom=0;swimlaneFillColor=#ffffff;align=center;rounded=0;shadow=0;comic=0;labelBackgroundColor=none;strokeColor=#000000;strokeWidth=1;fontFamily=Verdana;fontSize=14;fontColor=#000000;">
          <mxGeometry as="geometry" height="141" width="160" y="660" x="1210">
            <mxRectangle as="alternateBounds" height="26" width="140" y="580" x="290"/>
          </mxGeometry>
        </mxCell>
        <mxCell id="PmstyWCTgp6tROXILMXU-224" value="uniqueId" parent="PmstyWCTgp6tROXILMXU-223" vertex="1" style="shape=partialRectangle;top=0;left=0;right=0;bottom=0;html=1;align=left;verticalAlign=middle;fillColor=none;spacingLeft=60;spacingRight=4;whiteSpace=wrap;overflow=hidden;rotatable=0;points=[[0,0.5],[1,0.5]];portConstraint=eastwest;dropTarget=0;fontStyle=5;">
          <mxGeometry as="geometry" height="30" width="160" y="26"/>
        </mxCell>
        <mxCell id="PmstyWCTgp6tROXILMXU-225" value="PK,FK1" parent="PmstyWCTgp6tROXILMXU-224" vertex="1" style="shape=partialRectangle;fontStyle=1;top=0;left=0;bottom=0;html=1;fillColor=none;align=left;verticalAlign=middle;spacingLeft=4;spacingRight=4;whiteSpace=wrap;overflow=hidden;rotatable=0;points=[];portConstraint=eastwest;part=1;" connectable="0">
          <mxGeometry as="geometry" height="30" width="56"/>
        </mxCell>
        <mxCell id="PmstyWCTgp6tROXILMXU-226" value="" parent="PmstyWCTgp6tROXILMXU-223" vertex="1" style="shape=partialRectangle;top=0;left=0;right=0;bottom=1;html=1;align=left;verticalAlign=middle;fillColor=none;spacingLeft=60;spacingRight=4;whiteSpace=wrap;overflow=hidden;rotatable=0;points=[[0,0.5],[1,0.5]];portConstraint=eastwest;dropTarget=0;fontStyle=5;">
          <mxGeometry as="geometry" height="30" width="160" y="56"/>
        </mxCell>
        <mxCell id="PmstyWCTgp6tROXILMXU-227" value="" parent="PmstyWCTgp6tROXILMXU-226" vertex="1" style="shape=partialRectangle;fontStyle=1;top=0;left=0;bottom=0;html=1;fillColor=none;align=left;verticalAlign=middle;spacingLeft=4;spacingRight=4;whiteSpace=wrap;overflow=hidden;rotatable=0;points=[];portConstraint=eastwest;part=1;" connectable="0">
          <mxGeometry as="geometry" height="30" width="56"/>
        </mxCell>
        <mxCell id="PmstyWCTgp6tROXILMXU-228" value="Name" parent="PmstyWCTgp6tROXILMXU-223" vertex="1" style="shape=partialRectangle;top=0;left=0;right=0;bottom=0;html=1;align=left;verticalAlign=top;fillColor=none;spacingLeft=60;spacingRight=4;whiteSpace=wrap;overflow=hidden;rotatable=0;points=[[0,0.5],[1,0.5]];portConstraint=eastwest;dropTarget=0;">
          <mxGeometry as="geometry" height="24" width="160" y="86"/>
        </mxCell>
        <mxCell id="PmstyWCTgp6tROXILMXU-229" value="" parent="PmstyWCTgp6tROXILMXU-228" vertex="1" style="shape=partialRectangle;top=0;left=0;bottom=0;html=1;fillColor=none;align=left;verticalAlign=top;spacingLeft=4;spacingRight=4;whiteSpace=wrap;overflow=hidden;rotatable=0;points=[];portConstraint=eastwest;part=1;" connectable="0">
          <mxGeometry as="geometry" height="24" width="56"/>
        </mxCell>
        <mxCell id="PmstyWCTgp6tROXILMXU-230" value="Description" parent="PmstyWCTgp6tROXILMXU-223" vertex="1" style="shape=partialRectangle;top=0;left=0;right=0;bottom=0;html=1;align=left;verticalAlign=top;fillColor=none;spacingLeft=60;spacingRight=4;whiteSpace=wrap;overflow=hidden;rotatable=0;points=[[0,0.5],[1,0.5]];portConstraint=eastwest;dropTarget=0;">
          <mxGeometry as="geometry" height="24" width="160" y="110"/>
        </mxCell>
        <mxCell id="PmstyWCTgp6tROXILMXU-231" value="" parent="PmstyWCTgp6tROXILMXU-230" vertex="1" style="shape=partialRectangle;top=0;left=0;bottom=0;html=1;fillColor=none;align=left;verticalAlign=top;spacingLeft=4;spacingRight=4;whiteSpace=wrap;overflow=hidden;rotatable=0;points=[];portConstraint=eastwest;part=1;" connectable="0">
          <mxGeometry as="geometry" height="24" width="56"/>
        </mxCell>
        <mxCell id="PmstyWCTgp6tROXILMXU-232" parent="1" style="edgeStyle=orthogonalEdgeStyle;rounded=0;orthogonalLoop=1;jettySize=auto;html=1;entryX=0;entryY=0.5;entryDx=0;entryDy=0;" edge="1" target="PmstyWCTgp6tROXILMXU-215" source="PmstyWCTgp6tROXILMXU-212">
          <mxGeometry as="geometry" relative="1"/>
        </mxCell>
        <mxCell id="PmstyWCTgp6tROXILMXU-246" parent="1" style="edgeStyle=orthogonalEdgeStyle;rounded=0;orthogonalLoop=1;jettySize=auto;html=1;entryX=0;entryY=0.5;entryDx=0;entryDy=0;" edge="1" target="PmstyWCTgp6tROXILMXU-224" source="PmstyWCTgp6tROXILMXU-210">
          <mxGeometry as="geometry" relative="1"/>
        </mxCell>
        <mxCell id="SwsiR07pHhI11kPIutOl-1" value="TaskShedule" parent="1" vertex="1" style="swimlane;html=1;fontStyle=0;childLayout=stackLayout;horizontal=1;startSize=16;fillColor=#e0e0e0;horizontalStack=0;resizeParent=1;resizeLast=0;collapsible=1;marginBottom=0;swimlaneFillColor=#ffffff;align=center;rounded=0;shadow=0;comic=0;labelBackgroundColor=none;strokeColor=#000000;strokeWidth=1;fontFamily=Verdana;fontSize=14;fontColor=#000000;">
          <mxGeometry as="geometry" height="420" width="160" y="790" x="950"/>
        </mxCell>
        <mxCell id="SwsiR07pHhI11kPIutOl-2" value="uniqueId" parent="SwsiR07pHhI11kPIutOl-1" vertex="1" style="shape=partialRectangle;top=0;left=0;right=0;bottom=0;html=1;align=left;verticalAlign=middle;fillColor=none;spacingLeft=60;spacingRight=4;whiteSpace=wrap;overflow=hidden;rotatable=0;points=[[0,0.5],[1,0.5]];portConstraint=eastwest;dropTarget=0;fontStyle=5;">
          <mxGeometry as="geometry" height="30" width="160" y="16"/>
        </mxCell>
        <mxCell id="SwsiR07pHhI11kPIutOl-3" value="PK" parent="SwsiR07pHhI11kPIutOl-2" vertex="1" style="shape=partialRectangle;fontStyle=1;top=0;left=0;bottom=0;html=1;fillColor=none;align=left;verticalAlign=middle;spacingLeft=4;spacingRight=4;whiteSpace=wrap;overflow=hidden;rotatable=0;points=[];portConstraint=eastwest;part=1;" connectable="0">
          <mxGeometry as="geometry" height="30" width="56"/>
        </mxCell>
        <mxCell id="SwsiR07pHhI11kPIutOl-4" value="" parent="SwsiR07pHhI11kPIutOl-1" vertex="1" style="shape=partialRectangle;top=0;left=0;right=0;bottom=1;html=1;align=left;verticalAlign=middle;fillColor=none;spacingLeft=60;spacingRight=4;whiteSpace=wrap;overflow=hidden;rotatable=0;points=[[0,0.5],[1,0.5]];portConstraint=eastwest;dropTarget=0;fontStyle=5;">
          <mxGeometry as="geometry" height="30" width="160" y="46"/>
        </mxCell>
        <mxCell id="SwsiR07pHhI11kPIutOl-5" value="" parent="SwsiR07pHhI11kPIutOl-4" vertex="1" style="shape=partialRectangle;fontStyle=1;top=0;left=0;bottom=0;html=1;fillColor=none;align=left;verticalAlign=middle;spacingLeft=4;spacingRight=4;whiteSpace=wrap;overflow=hidden;rotatable=0;points=[];portConstraint=eastwest;part=1;" connectable="0">
          <mxGeometry as="geometry" height="30" width="56"/>
        </mxCell>
        <mxCell id="SwsiR07pHhI11kPIutOl-6" value="Name&lt;br&gt;" parent="SwsiR07pHhI11kPIutOl-1" vertex="1" style="shape=partialRectangle;top=0;left=0;right=0;bottom=0;html=1;align=left;verticalAlign=top;fillColor=none;spacingLeft=60;spacingRight=4;whiteSpace=wrap;overflow=hidden;rotatable=0;points=[[0,0.5],[1,0.5]];portConstraint=eastwest;dropTarget=0;">
          <mxGeometry as="geometry" height="24" width="160" y="76"/>
        </mxCell>
        <mxCell id="SwsiR07pHhI11kPIutOl-7" value="" parent="SwsiR07pHhI11kPIutOl-6" vertex="1" style="shape=partialRectangle;top=0;left=0;bottom=0;html=1;fillColor=none;align=left;verticalAlign=top;spacingLeft=4;spacingRight=4;whiteSpace=wrap;overflow=hidden;rotatable=0;points=[];portConstraint=eastwest;part=1;" connectable="0">
          <mxGeometry as="geometry" height="24" width="56"/>
        </mxCell>
        <mxCell id="SwsiR07pHhI11kPIutOl-8" value="Description" parent="SwsiR07pHhI11kPIutOl-1" vertex="1" style="shape=partialRectangle;top=0;left=0;right=0;bottom=0;html=1;align=left;verticalAlign=top;fillColor=none;spacingLeft=60;spacingRight=4;whiteSpace=wrap;overflow=hidden;rotatable=0;points=[[0,0.5],[1,0.5]];portConstraint=eastwest;dropTarget=0;">
          <mxGeometry as="geometry" height="24" width="160" y="100"/>
        </mxCell>
        <mxCell id="SwsiR07pHhI11kPIutOl-9" value="" parent="SwsiR07pHhI11kPIutOl-8" vertex="1" style="shape=partialRectangle;top=0;left=0;bottom=0;html=1;fillColor=none;align=left;verticalAlign=top;spacingLeft=4;spacingRight=4;whiteSpace=wrap;overflow=hidden;rotatable=0;points=[];portConstraint=eastwest;part=1;" connectable="0">
          <mxGeometry as="geometry" height="24" width="56"/>
        </mxCell>
        <mxCell id="SwsiR07pHhI11kPIutOl-10" value="PriorityID" parent="SwsiR07pHhI11kPIutOl-1" vertex="1" style="shape=partialRectangle;top=0;left=0;right=0;bottom=0;html=1;align=left;verticalAlign=top;fillColor=none;spacingLeft=60;spacingRight=4;whiteSpace=wrap;overflow=hidden;rotatable=0;points=[[0,0.5],[1,0.5]];portConstraint=eastwest;dropTarget=0;">
          <mxGeometry as="geometry" height="24" width="160" y="124"/>
        </mxCell>
        <mxCell id="SwsiR07pHhI11kPIutOl-11" value="" parent="SwsiR07pHhI11kPIutOl-10" vertex="1" style="shape=partialRectangle;top=0;left=0;bottom=0;html=1;fillColor=none;align=left;verticalAlign=top;spacingLeft=4;spacingRight=4;whiteSpace=wrap;overflow=hidden;rotatable=0;points=[];portConstraint=eastwest;part=1;" connectable="0">
          <mxGeometry as="geometry" height="24" width="56"/>
        </mxCell>
        <mxCell id="SwsiR07pHhI11kPIutOl-24" value="TaskID" parent="SwsiR07pHhI11kPIutOl-1" vertex="1" style="shape=partialRectangle;top=0;left=0;right=0;bottom=0;html=1;align=left;verticalAlign=top;fillColor=none;spacingLeft=60;spacingRight=4;whiteSpace=wrap;overflow=hidden;rotatable=0;points=[[0,0.5],[1,0.5]];portConstraint=eastwest;dropTarget=0;">
          <mxGeometry as="geometry" height="24" width="160" y="148"/>
        </mxCell>
        <mxCell id="SwsiR07pHhI11kPIutOl-25" value="" parent="SwsiR07pHhI11kPIutOl-24" vertex="1" style="shape=partialRectangle;top=0;left=0;bottom=0;html=1;fillColor=none;align=left;verticalAlign=top;spacingLeft=4;spacingRight=4;whiteSpace=wrap;overflow=hidden;rotatable=0;points=[];portConstraint=eastwest;part=1;" connectable="0">
          <mxGeometry as="geometry" height="24" width="56"/>
        </mxCell>
        <mxCell id="SwsiR07pHhI11kPIutOl-37" value="RunFrom" parent="SwsiR07pHhI11kPIutOl-1" vertex="1" style="shape=partialRectangle;top=0;left=0;right=0;bottom=0;html=1;align=left;verticalAlign=top;fillColor=none;spacingLeft=60;spacingRight=4;whiteSpace=wrap;overflow=hidden;rotatable=0;points=[[0,0.5],[1,0.5]];portConstraint=eastwest;dropTarget=0;">
          <mxGeometry as="geometry" height="24" width="160" y="172"/>
        </mxCell>
        <mxCell id="SwsiR07pHhI11kPIutOl-38" value="" parent="SwsiR07pHhI11kPIutOl-37" vertex="1" style="shape=partialRectangle;top=0;left=0;bottom=0;html=1;fillColor=none;align=left;verticalAlign=top;spacingLeft=4;spacingRight=4;whiteSpace=wrap;overflow=hidden;rotatable=0;points=[];portConstraint=eastwest;part=1;" connectable="0">
          <mxGeometry as="geometry" height="24" width="56"/>
        </mxCell>
        <mxCell id="SwsiR07pHhI11kPIutOl-39" value="OccursID" parent="SwsiR07pHhI11kPIutOl-1" vertex="1" style="shape=partialRectangle;top=0;left=0;right=0;bottom=0;html=1;align=left;verticalAlign=top;fillColor=none;spacingLeft=60;spacingRight=4;whiteSpace=wrap;overflow=hidden;rotatable=0;points=[[0,0.5],[1,0.5]];portConstraint=eastwest;dropTarget=0;">
          <mxGeometry as="geometry" height="24" width="160" y="196"/>
        </mxCell>
        <mxCell id="SwsiR07pHhI11kPIutOl-40" value="" parent="SwsiR07pHhI11kPIutOl-39" vertex="1" style="shape=partialRectangle;top=0;left=0;bottom=0;html=1;fillColor=none;align=left;verticalAlign=top;spacingLeft=4;spacingRight=4;whiteSpace=wrap;overflow=hidden;rotatable=0;points=[];portConstraint=eastwest;part=1;" connectable="0">
          <mxGeometry as="geometry" height="24" width="56"/>
        </mxCell>
        <mxCell id="SwsiR07pHhI11kPIutOl-43" value="RunUpto" parent="SwsiR07pHhI11kPIutOl-1" vertex="1" style="shape=partialRectangle;top=0;left=0;right=0;bottom=0;html=1;align=left;verticalAlign=top;fillColor=none;spacingLeft=60;spacingRight=4;whiteSpace=wrap;overflow=hidden;rotatable=0;points=[[0,0.5],[1,0.5]];portConstraint=eastwest;dropTarget=0;">
          <mxGeometry as="geometry" height="24" width="160" y="220"/>
        </mxCell>
        <mxCell id="SwsiR07pHhI11kPIutOl-44" value="" parent="SwsiR07pHhI11kPIutOl-43" vertex="1" style="shape=partialRectangle;top=0;left=0;bottom=0;html=1;fillColor=none;align=left;verticalAlign=top;spacingLeft=4;spacingRight=4;whiteSpace=wrap;overflow=hidden;rotatable=0;points=[];portConstraint=eastwest;part=1;" connectable="0">
          <mxGeometry as="geometry" height="24" width="56"/>
        </mxCell>
        <mxCell id="SwsiR07pHhI11kPIutOl-41" value="RecursEvery" parent="SwsiR07pHhI11kPIutOl-1" vertex="1" style="shape=partialRectangle;top=0;left=0;right=0;bottom=0;html=1;align=left;verticalAlign=top;fillColor=none;spacingLeft=60;spacingRight=4;whiteSpace=wrap;overflow=hidden;rotatable=0;points=[[0,0.5],[1,0.5]];portConstraint=eastwest;dropTarget=0;">
          <mxGeometry as="geometry" height="24" width="160" y="244"/>
        </mxCell>
        <mxCell id="SwsiR07pHhI11kPIutOl-42" value="" parent="SwsiR07pHhI11kPIutOl-41" vertex="1" style="shape=partialRectangle;top=0;left=0;bottom=0;html=1;fillColor=none;align=left;verticalAlign=top;spacingLeft=4;spacingRight=4;whiteSpace=wrap;overflow=hidden;rotatable=0;points=[];portConstraint=eastwest;part=1;" connectable="0">
          <mxGeometry as="geometry" height="24" width="56"/>
        </mxCell>
        <mxCell id="SwsiR07pHhI11kPIutOl-14" value="Enabled" parent="SwsiR07pHhI11kPIutOl-1" vertex="1" style="shape=partialRectangle;top=0;left=0;right=0;bottom=0;html=1;align=left;verticalAlign=top;fillColor=none;spacingLeft=60;spacingRight=4;whiteSpace=wrap;overflow=hidden;rotatable=0;points=[[0,0.5],[1,0.5]];portConstraint=eastwest;dropTarget=0;">
          <mxGeometry as="geometry" height="24" width="160" y="268"/>
        </mxCell>
        <mxCell id="SwsiR07pHhI11kPIutOl-15" value="" parent="SwsiR07pHhI11kPIutOl-14" vertex="1" style="shape=partialRectangle;top=0;left=0;bottom=0;html=1;fillColor=none;align=left;verticalAlign=top;spacingLeft=4;spacingRight=4;whiteSpace=wrap;overflow=hidden;rotatable=0;points=[];portConstraint=eastwest;part=1;" connectable="0">
          <mxGeometry as="geometry" height="24" width="56"/>
        </mxCell>
        <mxCell id="SwsiR07pHhI11kPIutOl-16" value="CreatedBy" parent="SwsiR07pHhI11kPIutOl-1" vertex="1" style="shape=partialRectangle;top=0;left=0;right=0;bottom=0;html=1;align=left;verticalAlign=top;fillColor=none;spacingLeft=60;spacingRight=4;whiteSpace=wrap;overflow=hidden;rotatable=0;points=[[0,0.5],[1,0.5]];portConstraint=eastwest;dropTarget=0;">
          <mxGeometry as="geometry" height="24" width="160" y="292"/>
        </mxCell>
        <mxCell id="SwsiR07pHhI11kPIutOl-17" value="" parent="SwsiR07pHhI11kPIutOl-16" vertex="1" style="shape=partialRectangle;top=0;left=0;bottom=0;html=1;fillColor=none;align=left;verticalAlign=top;spacingLeft=4;spacingRight=4;whiteSpace=wrap;overflow=hidden;rotatable=0;points=[];portConstraint=eastwest;part=1;" connectable="0">
          <mxGeometry as="geometry" height="24" width="56"/>
        </mxCell>
        <mxCell id="SwsiR07pHhI11kPIutOl-18" value="ModifyBy" parent="SwsiR07pHhI11kPIutOl-1" vertex="1" style="shape=partialRectangle;top=0;left=0;right=0;bottom=0;html=1;align=left;verticalAlign=top;fillColor=none;spacingLeft=60;spacingRight=4;whiteSpace=wrap;overflow=hidden;rotatable=0;points=[[0,0.5],[1,0.5]];portConstraint=eastwest;dropTarget=0;">
          <mxGeometry as="geometry" height="24" width="160" y="316"/>
        </mxCell>
        <mxCell id="SwsiR07pHhI11kPIutOl-19" value="" parent="SwsiR07pHhI11kPIutOl-18" vertex="1" style="shape=partialRectangle;top=0;left=0;bottom=0;html=1;fillColor=none;align=left;verticalAlign=top;spacingLeft=4;spacingRight=4;whiteSpace=wrap;overflow=hidden;rotatable=0;points=[];portConstraint=eastwest;part=1;" connectable="0">
          <mxGeometry as="geometry" height="24" width="56"/>
        </mxCell>
        <mxCell id="SwsiR07pHhI11kPIutOl-20" value="CreatedDate" parent="SwsiR07pHhI11kPIutOl-1" vertex="1" style="shape=partialRectangle;top=0;left=0;right=0;bottom=0;html=1;align=left;verticalAlign=top;fillColor=none;spacingLeft=60;spacingRight=4;whiteSpace=wrap;overflow=hidden;rotatable=0;points=[[0,0.5],[1,0.5]];portConstraint=eastwest;dropTarget=0;">
          <mxGeometry as="geometry" height="24" width="160" y="340"/>
        </mxCell>
        <mxCell id="SwsiR07pHhI11kPIutOl-21" value="" parent="SwsiR07pHhI11kPIutOl-20" vertex="1" style="shape=partialRectangle;top=0;left=0;bottom=0;html=1;fillColor=none;align=left;verticalAlign=top;spacingLeft=4;spacingRight=4;whiteSpace=wrap;overflow=hidden;rotatable=0;points=[];portConstraint=eastwest;part=1;" connectable="0">
          <mxGeometry as="geometry" height="24" width="56"/>
        </mxCell>
        <mxCell id="SwsiR07pHhI11kPIutOl-22" value="ModifyDate" parent="SwsiR07pHhI11kPIutOl-1" vertex="1" style="shape=partialRectangle;top=0;left=0;right=0;bottom=0;html=1;align=left;verticalAlign=top;fillColor=none;spacingLeft=60;spacingRight=4;whiteSpace=wrap;overflow=hidden;rotatable=0;points=[[0,0.5],[1,0.5]];portConstraint=eastwest;dropTarget=0;">
          <mxGeometry as="geometry" height="26" width="160" y="364"/>
        </mxCell>
        <mxCell id="SwsiR07pHhI11kPIutOl-23" value="" parent="SwsiR07pHhI11kPIutOl-22" vertex="1" style="shape=partialRectangle;top=0;left=0;bottom=0;html=1;fillColor=none;align=left;verticalAlign=top;spacingLeft=4;spacingRight=4;whiteSpace=wrap;overflow=hidden;rotatable=0;points=[];portConstraint=eastwest;part=1;" connectable="0">
          <mxGeometry as="geometry" height="26" width="56"/>
        </mxCell>
        <mxCell id="SwsiR07pHhI11kPIutOl-45" value="StartDate" parent="SwsiR07pHhI11kPIutOl-1" vertex="1" style="shape=partialRectangle;top=0;left=0;right=0;bottom=0;html=1;align=left;verticalAlign=top;fillColor=none;spacingLeft=60;spacingRight=4;whiteSpace=wrap;overflow=hidden;rotatable=0;points=[[0,0.5],[1,0.5]];portConstraint=eastwest;dropTarget=0;">
          <mxGeometry as="geometry" height="26" width="160" y="390"/>
        </mxCell>
        <mxCell id="SwsiR07pHhI11kPIutOl-46" value="" parent="SwsiR07pHhI11kPIutOl-45" vertex="1" style="shape=partialRectangle;top=0;left=0;bottom=0;html=1;fillColor=none;align=left;verticalAlign=top;spacingLeft=4;spacingRight=4;whiteSpace=wrap;overflow=hidden;rotatable=0;points=[];portConstraint=eastwest;part=1;" connectable="0">
          <mxGeometry as="geometry" height="26" width="56"/>
        </mxCell>
        <mxCell id="SwsiR07pHhI11kPIutOl-26" parent="1" style="edgeStyle=orthogonalEdgeStyle;rounded=0;orthogonalLoop=1;jettySize=auto;html=1;entryX=0;entryY=0.5;entryDx=0;entryDy=0;" edge="1" target="PmstyWCTgp6tROXILMXU-198" source="SwsiR07pHhI11kPIutOl-24">
          <mxGeometry as="geometry" relative="1"/>
        </mxCell>
        <mxCell id="SwsiR07pHhI11kPIutOl-27" value="TaskShedulePriority" parent="1" vertex="1" style="swimlane;html=1;fontStyle=0;childLayout=stackLayout;horizontal=1;startSize=26;fillColor=#e0e0e0;horizontalStack=0;resizeParent=1;resizeLast=0;collapsible=1;marginBottom=0;swimlaneFillColor=#ffffff;align=center;rounded=0;shadow=0;comic=0;labelBackgroundColor=none;strokeColor=#000000;strokeWidth=1;fontFamily=Verdana;fontSize=14;fontColor=#000000;">
          <mxGeometry as="geometry" height="141" width="160" y="820" x="1210">
            <mxRectangle as="alternateBounds" height="26" width="140" y="580" x="290"/>
          </mxGeometry>
        </mxCell>
        <mxCell id="SwsiR07pHhI11kPIutOl-28" value="uniqueId" parent="SwsiR07pHhI11kPIutOl-27" vertex="1" style="shape=partialRectangle;top=0;left=0;right=0;bottom=0;html=1;align=left;verticalAlign=middle;fillColor=none;spacingLeft=60;spacingRight=4;whiteSpace=wrap;overflow=hidden;rotatable=0;points=[[0,0.5],[1,0.5]];portConstraint=eastwest;dropTarget=0;fontStyle=5;">
          <mxGeometry as="geometry" height="30" width="160" y="26"/>
        </mxCell>
        <mxCell id="SwsiR07pHhI11kPIutOl-29" value="PK,FK1" parent="SwsiR07pHhI11kPIutOl-28" vertex="1" style="shape=partialRectangle;fontStyle=1;top=0;left=0;bottom=0;html=1;fillColor=none;align=left;verticalAlign=middle;spacingLeft=4;spacingRight=4;whiteSpace=wrap;overflow=hidden;rotatable=0;points=[];portConstraint=eastwest;part=1;" connectable="0">
          <mxGeometry as="geometry" height="30" width="56"/>
        </mxCell>
        <mxCell id="SwsiR07pHhI11kPIutOl-30" value="" parent="SwsiR07pHhI11kPIutOl-27" vertex="1" style="shape=partialRectangle;top=0;left=0;right=0;bottom=1;html=1;align=left;verticalAlign=middle;fillColor=none;spacingLeft=60;spacingRight=4;whiteSpace=wrap;overflow=hidden;rotatable=0;points=[[0,0.5],[1,0.5]];portConstraint=eastwest;dropTarget=0;fontStyle=5;">
          <mxGeometry as="geometry" height="30" width="160" y="56"/>
        </mxCell>
        <mxCell id="SwsiR07pHhI11kPIutOl-31" value="" parent="SwsiR07pHhI11kPIutOl-30" vertex="1" style="shape=partialRectangle;fontStyle=1;top=0;left=0;bottom=0;html=1;fillColor=none;align=left;verticalAlign=middle;spacingLeft=4;spacingRight=4;whiteSpace=wrap;overflow=hidden;rotatable=0;points=[];portConstraint=eastwest;part=1;" connectable="0">
          <mxGeometry as="geometry" height="30" width="56"/>
        </mxCell>
        <mxCell id="SwsiR07pHhI11kPIutOl-32" value="Name" parent="SwsiR07pHhI11kPIutOl-27" vertex="1" style="shape=partialRectangle;top=0;left=0;right=0;bottom=0;html=1;align=left;verticalAlign=top;fillColor=none;spacingLeft=60;spacingRight=4;whiteSpace=wrap;overflow=hidden;rotatable=0;points=[[0,0.5],[1,0.5]];portConstraint=eastwest;dropTarget=0;">
          <mxGeometry as="geometry" height="24" width="160" y="86"/>
        </mxCell>
        <mxCell id="SwsiR07pHhI11kPIutOl-33" value="" parent="SwsiR07pHhI11kPIutOl-32" vertex="1" style="shape=partialRectangle;top=0;left=0;bottom=0;html=1;fillColor=none;align=left;verticalAlign=top;spacingLeft=4;spacingRight=4;whiteSpace=wrap;overflow=hidden;rotatable=0;points=[];portConstraint=eastwest;part=1;" connectable="0">
          <mxGeometry as="geometry" height="24" width="56"/>
        </mxCell>
        <mxCell id="SwsiR07pHhI11kPIutOl-34" value="Description" parent="SwsiR07pHhI11kPIutOl-27" vertex="1" style="shape=partialRectangle;top=0;left=0;right=0;bottom=0;html=1;align=left;verticalAlign=top;fillColor=none;spacingLeft=60;spacingRight=4;whiteSpace=wrap;overflow=hidden;rotatable=0;points=[[0,0.5],[1,0.5]];portConstraint=eastwest;dropTarget=0;">
          <mxGeometry as="geometry" height="24" width="160" y="110"/>
        </mxCell>
        <mxCell id="SwsiR07pHhI11kPIutOl-35" value="" parent="SwsiR07pHhI11kPIutOl-34" vertex="1" style="shape=partialRectangle;top=0;left=0;bottom=0;html=1;fillColor=none;align=left;verticalAlign=top;spacingLeft=4;spacingRight=4;whiteSpace=wrap;overflow=hidden;rotatable=0;points=[];portConstraint=eastwest;part=1;" connectable="0">
          <mxGeometry as="geometry" height="24" width="56"/>
        </mxCell>
        <mxCell id="SwsiR07pHhI11kPIutOl-36" parent="1" style="edgeStyle=orthogonalEdgeStyle;rounded=0;orthogonalLoop=1;jettySize=auto;html=1;entryX=-0.019;entryY=0.8;entryDx=0;entryDy=0;entryPerimeter=0;" edge="1" target="SwsiR07pHhI11kPIutOl-28" source="SwsiR07pHhI11kPIutOl-10">
          <mxGeometry as="geometry" relative="1"/>
        </mxCell>
        <mxCell id="SwsiR07pHhI11kPIutOl-47" value="Occurs" parent="1" vertex="1" style="swimlane;html=1;fontStyle=0;childLayout=stackLayout;horizontal=1;startSize=26;fillColor=#e0e0e0;horizontalStack=0;resizeParent=1;resizeLast=0;collapsible=1;marginBottom=0;swimlaneFillColor=#ffffff;align=center;rounded=0;shadow=0;comic=0;labelBackgroundColor=none;strokeColor=#000000;strokeWidth=1;fontFamily=Verdana;fontSize=14;fontColor=#000000;">
          <mxGeometry as="geometry" height="134" width="160" y="1010" x="1210">
            <mxRectangle as="alternateBounds" height="26" width="140" y="580" x="290"/>
          </mxGeometry>
        </mxCell>
        <mxCell id="SwsiR07pHhI11kPIutOl-48" value="uniqueId" parent="SwsiR07pHhI11kPIutOl-47" vertex="1" style="shape=partialRectangle;top=0;left=0;right=0;bottom=0;html=1;align=left;verticalAlign=middle;fillColor=none;spacingLeft=60;spacingRight=4;whiteSpace=wrap;overflow=hidden;rotatable=0;points=[[0,0.5],[1,0.5]];portConstraint=eastwest;dropTarget=0;fontStyle=5;">
          <mxGeometry as="geometry" height="30" width="160" y="26"/>
        </mxCell>
        <mxCell id="SwsiR07pHhI11kPIutOl-49" value="PK,FK1" parent="SwsiR07pHhI11kPIutOl-48" vertex="1" style="shape=partialRectangle;fontStyle=1;top=0;left=0;bottom=0;html=1;fillColor=none;align=left;verticalAlign=middle;spacingLeft=4;spacingRight=4;whiteSpace=wrap;overflow=hidden;rotatable=0;points=[];portConstraint=eastwest;part=1;" connectable="0">
          <mxGeometry as="geometry" height="30" width="56"/>
        </mxCell>
        <mxCell id="SwsiR07pHhI11kPIutOl-50" value="" parent="SwsiR07pHhI11kPIutOl-47" vertex="1" style="shape=partialRectangle;top=0;left=0;right=0;bottom=1;html=1;align=left;verticalAlign=middle;fillColor=none;spacingLeft=60;spacingRight=4;whiteSpace=wrap;overflow=hidden;rotatable=0;points=[[0,0.5],[1,0.5]];portConstraint=eastwest;dropTarget=0;fontStyle=5;">
          <mxGeometry as="geometry" height="30" width="160" y="56"/>
        </mxCell>
        <mxCell id="SwsiR07pHhI11kPIutOl-51" value="" parent="SwsiR07pHhI11kPIutOl-50" vertex="1" style="shape=partialRectangle;fontStyle=1;top=0;left=0;bottom=0;html=1;fillColor=none;align=left;verticalAlign=middle;spacingLeft=4;spacingRight=4;whiteSpace=wrap;overflow=hidden;rotatable=0;points=[];portConstraint=eastwest;part=1;" connectable="0">
          <mxGeometry as="geometry" height="30" width="56"/>
        </mxCell>
        <mxCell id="SwsiR07pHhI11kPIutOl-52" value="Name" parent="SwsiR07pHhI11kPIutOl-47" vertex="1" style="shape=partialRectangle;top=0;left=0;right=0;bottom=0;html=1;align=left;verticalAlign=top;fillColor=none;spacingLeft=60;spacingRight=4;whiteSpace=wrap;overflow=hidden;rotatable=0;points=[[0,0.5],[1,0.5]];portConstraint=eastwest;dropTarget=0;">
          <mxGeometry as="geometry" height="24" width="160" y="86"/>
        </mxCell>
        <mxCell id="SwsiR07pHhI11kPIutOl-53" value="" parent="SwsiR07pHhI11kPIutOl-52" vertex="1" style="shape=partialRectangle;top=0;left=0;bottom=0;html=1;fillColor=none;align=left;verticalAlign=top;spacingLeft=4;spacingRight=4;whiteSpace=wrap;overflow=hidden;rotatable=0;points=[];portConstraint=eastwest;part=1;" connectable="0">
          <mxGeometry as="geometry" height="24" width="56"/>
        </mxCell>
        <mxCell id="SwsiR07pHhI11kPIutOl-54" value="TimeUnit" parent="SwsiR07pHhI11kPIutOl-47" vertex="1" style="shape=partialRectangle;top=0;left=0;right=0;bottom=0;html=1;align=left;verticalAlign=top;fillColor=none;spacingLeft=60;spacingRight=4;whiteSpace=wrap;overflow=hidden;rotatable=0;points=[[0,0.5],[1,0.5]];portConstraint=eastwest;dropTarget=0;">
          <mxGeometry as="geometry" height="24" width="160" y="110"/>
        </mxCell>
        <mxCell id="SwsiR07pHhI11kPIutOl-55" value="" parent="SwsiR07pHhI11kPIutOl-54" vertex="1" style="shape=partialRectangle;top=0;left=0;bottom=0;html=1;fillColor=none;align=left;verticalAlign=top;spacingLeft=4;spacingRight=4;whiteSpace=wrap;overflow=hidden;rotatable=0;points=[];portConstraint=eastwest;part=1;" connectable="0">
          <mxGeometry as="geometry" height="24" width="56"/>
        </mxCell>
        <mxCell id="SwsiR07pHhI11kPIutOl-57" parent="1" style="edgeStyle=orthogonalEdgeStyle;rounded=0;orthogonalLoop=1;jettySize=auto;html=1;entryX=-0.006;entryY=0.733;entryDx=0;entryDy=0;entryPerimeter=0;" edge="1" target="SwsiR07pHhI11kPIutOl-48" source="SwsiR07pHhI11kPIutOl-39">
          <mxGeometry as="geometry" relative="1"/>
        </mxCell>
        <mxCell id="SwsiR07pHhI11kPIutOl-67" parent="1" style="edgeStyle=orthogonalEdgeStyle;rounded=0;orthogonalLoop=1;jettySize=auto;html=1;entryX=0;entryY=0.5;entryDx=0;entryDy=0;" edge="1" target="PmstyWCTgp6tROXILMXU-198" source="SwsiR07pHhI11kPIutOl-63">
          <mxGeometry as="geometry" relative="1"/>
        </mxCell>
        <mxCell id="SwsiR07pHhI11kPIutOl-69" parent="1" style="edgeStyle=orthogonalEdgeStyle;rounded=0;orthogonalLoop=1;jettySize=auto;html=1;entryX=1;entryY=0.5;entryDx=0;entryDy=0;" edge="1" target="PmstyWCTgp6tROXILMXU-162" source="PmstyWCTgp6tROXILMXU-34">
          <mxGeometry as="geometry" relative="1"/>
        </mxCell>
        <mxCell id="SwsiR07pHhI11kPIutOl-80" parent="1" style="edgeStyle=orthogonalEdgeStyle;rounded=0;orthogonalLoop=1;jettySize=auto;html=1;entryX=0;entryY=0.5;entryDx=0;entryDy=0;" edge="1" target="PmstyWCTgp6tROXILMXU-81" source="PmstyWCTgp6tROXILMXU-76">
          <mxGeometry as="geometry" relative="1"/>
        </mxCell>
        <mxCell id="SwsiR07pHhI11kPIutOl-101" value="Enviroment" parent="1" vertex="1" style="swimlane;html=1;fontStyle=0;childLayout=stackLayout;horizontal=1;startSize=16;fillColor=#e0e0e0;horizontalStack=0;resizeParent=1;resizeLast=0;collapsible=1;marginBottom=0;swimlaneFillColor=#ffffff;align=center;rounded=0;shadow=0;comic=0;labelBackgroundColor=none;strokeColor=#000000;strokeWidth=1;fontFamily=Verdana;fontSize=14;fontColor=#000000;">
          <mxGeometry as="geometry" height="284" width="160" y="140" x="700"/>
        </mxCell>
        <mxCell id="SwsiR07pHhI11kPIutOl-102" value="uniqueId" parent="SwsiR07pHhI11kPIutOl-101" vertex="1" style="shape=partialRectangle;top=0;left=0;right=0;bottom=0;html=1;align=left;verticalAlign=middle;fillColor=none;spacingLeft=60;spacingRight=4;whiteSpace=wrap;overflow=hidden;rotatable=0;points=[[0,0.5],[1,0.5]];portConstraint=eastwest;dropTarget=0;fontStyle=5;">
          <mxGeometry as="geometry" height="30" width="160" y="16"/>
        </mxCell>
        <mxCell id="SwsiR07pHhI11kPIutOl-103" value="PK" parent="SwsiR07pHhI11kPIutOl-102" vertex="1" style="shape=partialRectangle;fontStyle=1;top=0;left=0;bottom=0;html=1;fillColor=none;align=left;verticalAlign=middle;spacingLeft=4;spacingRight=4;whiteSpace=wrap;overflow=hidden;rotatable=0;points=[];portConstraint=eastwest;part=1;" connectable="0">
          <mxGeometry as="geometry" height="30" width="56"/>
        </mxCell>
        <mxCell id="SwsiR07pHhI11kPIutOl-104" value="" parent="SwsiR07pHhI11kPIutOl-101" vertex="1" style="shape=partialRectangle;top=0;left=0;right=0;bottom=1;html=1;align=left;verticalAlign=middle;fillColor=none;spacingLeft=60;spacingRight=4;whiteSpace=wrap;overflow=hidden;rotatable=0;points=[[0,0.5],[1,0.5]];portConstraint=eastwest;dropTarget=0;fontStyle=5;">
          <mxGeometry as="geometry" height="30" width="160" y="46"/>
        </mxCell>
        <mxCell id="SwsiR07pHhI11kPIutOl-105" value="" parent="SwsiR07pHhI11kPIutOl-104" vertex="1" style="shape=partialRectangle;fontStyle=1;top=0;left=0;bottom=0;html=1;fillColor=none;align=left;verticalAlign=middle;spacingLeft=4;spacingRight=4;whiteSpace=wrap;overflow=hidden;rotatable=0;points=[];portConstraint=eastwest;part=1;" connectable="0">
          <mxGeometry as="geometry" height="30" width="56"/>
        </mxCell>
        <mxCell id="SwsiR07pHhI11kPIutOl-106" value="Name&lt;br&gt;" parent="SwsiR07pHhI11kPIutOl-101" vertex="1" style="shape=partialRectangle;top=0;left=0;right=0;bottom=0;html=1;align=left;verticalAlign=top;fillColor=none;spacingLeft=60;spacingRight=4;whiteSpace=wrap;overflow=hidden;rotatable=0;points=[[0,0.5],[1,0.5]];portConstraint=eastwest;dropTarget=0;">
          <mxGeometry as="geometry" height="24" width="160" y="76"/>
        </mxCell>
        <mxCell id="SwsiR07pHhI11kPIutOl-107" value="" parent="SwsiR07pHhI11kPIutOl-106" vertex="1" style="shape=partialRectangle;top=0;left=0;bottom=0;html=1;fillColor=none;align=left;verticalAlign=top;spacingLeft=4;spacingRight=4;whiteSpace=wrap;overflow=hidden;rotatable=0;points=[];portConstraint=eastwest;part=1;" connectable="0">
          <mxGeometry as="geometry" height="24" width="56"/>
        </mxCell>
        <mxCell id="SwsiR07pHhI11kPIutOl-108" value="Description" parent="SwsiR07pHhI11kPIutOl-101" vertex="1" style="shape=partialRectangle;top=0;left=0;right=0;bottom=0;html=1;align=left;verticalAlign=top;fillColor=none;spacingLeft=60;spacingRight=4;whiteSpace=wrap;overflow=hidden;rotatable=0;points=[[0,0.5],[1,0.5]];portConstraint=eastwest;dropTarget=0;">
          <mxGeometry as="geometry" height="24" width="160" y="100"/>
        </mxCell>
        <mxCell id="SwsiR07pHhI11kPIutOl-109" value="" parent="SwsiR07pHhI11kPIutOl-108" vertex="1" style="shape=partialRectangle;top=0;left=0;bottom=0;html=1;fillColor=none;align=left;verticalAlign=top;spacingLeft=4;spacingRight=4;whiteSpace=wrap;overflow=hidden;rotatable=0;points=[];portConstraint=eastwest;part=1;" connectable="0">
          <mxGeometry as="geometry" height="24" width="56"/>
        </mxCell>
        <mxCell id="SwsiR07pHhI11kPIutOl-148" value="NodeID" parent="SwsiR07pHhI11kPIutOl-101" vertex="1" style="shape=partialRectangle;top=0;left=0;right=0;bottom=0;html=1;align=left;verticalAlign=top;fillColor=none;spacingLeft=60;spacingRight=4;whiteSpace=wrap;overflow=hidden;rotatable=0;points=[[0,0.5],[1,0.5]];portConstraint=eastwest;dropTarget=0;">
          <mxGeometry as="geometry" height="24" width="160" y="124"/>
        </mxCell>
        <mxCell id="SwsiR07pHhI11kPIutOl-149" value="" parent="SwsiR07pHhI11kPIutOl-148" vertex="1" style="shape=partialRectangle;top=0;left=0;bottom=0;html=1;fillColor=none;align=left;verticalAlign=top;spacingLeft=4;spacingRight=4;whiteSpace=wrap;overflow=hidden;rotatable=0;points=[];portConstraint=eastwest;part=1;" connectable="0">
          <mxGeometry as="geometry" height="24" width="56"/>
        </mxCell>
        <mxCell id="SwsiR07pHhI11kPIutOl-112" value="Enabled" parent="SwsiR07pHhI11kPIutOl-101" vertex="1" style="shape=partialRectangle;top=0;left=0;right=0;bottom=0;html=1;align=left;verticalAlign=top;fillColor=none;spacingLeft=60;spacingRight=4;whiteSpace=wrap;overflow=hidden;rotatable=0;points=[[0,0.5],[1,0.5]];portConstraint=eastwest;dropTarget=0;">
          <mxGeometry as="geometry" height="24" width="160" y="148"/>
        </mxCell>
        <mxCell id="SwsiR07pHhI11kPIutOl-113" value="" parent="SwsiR07pHhI11kPIutOl-112" vertex="1" style="shape=partialRectangle;top=0;left=0;bottom=0;html=1;fillColor=none;align=left;verticalAlign=top;spacingLeft=4;spacingRight=4;whiteSpace=wrap;overflow=hidden;rotatable=0;points=[];portConstraint=eastwest;part=1;" connectable="0">
          <mxGeometry as="geometry" height="24" width="56"/>
        </mxCell>
        <mxCell id="SwsiR07pHhI11kPIutOl-114" value="CreatedBy" parent="SwsiR07pHhI11kPIutOl-101" vertex="1" style="shape=partialRectangle;top=0;left=0;right=0;bottom=0;html=1;align=left;verticalAlign=top;fillColor=none;spacingLeft=60;spacingRight=4;whiteSpace=wrap;overflow=hidden;rotatable=0;points=[[0,0.5],[1,0.5]];portConstraint=eastwest;dropTarget=0;">
          <mxGeometry as="geometry" height="24" width="160" y="172"/>
        </mxCell>
        <mxCell id="SwsiR07pHhI11kPIutOl-115" value="" parent="SwsiR07pHhI11kPIutOl-114" vertex="1" style="shape=partialRectangle;top=0;left=0;bottom=0;html=1;fillColor=none;align=left;verticalAlign=top;spacingLeft=4;spacingRight=4;whiteSpace=wrap;overflow=hidden;rotatable=0;points=[];portConstraint=eastwest;part=1;" connectable="0">
          <mxGeometry as="geometry" height="24" width="56"/>
        </mxCell>
        <mxCell id="SwsiR07pHhI11kPIutOl-116" value="ModifyBy" parent="SwsiR07pHhI11kPIutOl-101" vertex="1" style="shape=partialRectangle;top=0;left=0;right=0;bottom=0;html=1;align=left;verticalAlign=top;fillColor=none;spacingLeft=60;spacingRight=4;whiteSpace=wrap;overflow=hidden;rotatable=0;points=[[0,0.5],[1,0.5]];portConstraint=eastwest;dropTarget=0;">
          <mxGeometry as="geometry" height="24" width="160" y="196"/>
        </mxCell>
        <mxCell id="SwsiR07pHhI11kPIutOl-117" value="" parent="SwsiR07pHhI11kPIutOl-116" vertex="1" style="shape=partialRectangle;top=0;left=0;bottom=0;html=1;fillColor=none;align=left;verticalAlign=top;spacingLeft=4;spacingRight=4;whiteSpace=wrap;overflow=hidden;rotatable=0;points=[];portConstraint=eastwest;part=1;" connectable="0">
          <mxGeometry as="geometry" height="24" width="56"/>
        </mxCell>
        <mxCell id="SwsiR07pHhI11kPIutOl-118" value="CreatedDate" parent="SwsiR07pHhI11kPIutOl-101" vertex="1" style="shape=partialRectangle;top=0;left=0;right=0;bottom=0;html=1;align=left;verticalAlign=top;fillColor=none;spacingLeft=60;spacingRight=4;whiteSpace=wrap;overflow=hidden;rotatable=0;points=[[0,0.5],[1,0.5]];portConstraint=eastwest;dropTarget=0;">
          <mxGeometry as="geometry" height="24" width="160" y="220"/>
        </mxCell>
        <mxCell id="SwsiR07pHhI11kPIutOl-119" value="" parent="SwsiR07pHhI11kPIutOl-118" vertex="1" style="shape=partialRectangle;top=0;left=0;bottom=0;html=1;fillColor=none;align=left;verticalAlign=top;spacingLeft=4;spacingRight=4;whiteSpace=wrap;overflow=hidden;rotatable=0;points=[];portConstraint=eastwest;part=1;" connectable="0">
          <mxGeometry as="geometry" height="24" width="56"/>
        </mxCell>
        <mxCell id="SwsiR07pHhI11kPIutOl-120" value="ModifyDate" parent="SwsiR07pHhI11kPIutOl-101" vertex="1" style="shape=partialRectangle;top=0;left=0;right=0;bottom=0;html=1;align=left;verticalAlign=top;fillColor=none;spacingLeft=60;spacingRight=4;whiteSpace=wrap;overflow=hidden;rotatable=0;points=[[0,0.5],[1,0.5]];portConstraint=eastwest;dropTarget=0;">
          <mxGeometry as="geometry" height="20" width="160" y="244"/>
        </mxCell>
        <mxCell id="SwsiR07pHhI11kPIutOl-121" value="" parent="SwsiR07pHhI11kPIutOl-120" vertex="1" style="shape=partialRectangle;top=0;left=0;bottom=0;html=1;fillColor=none;align=left;verticalAlign=top;spacingLeft=4;spacingRight=4;whiteSpace=wrap;overflow=hidden;rotatable=0;points=[];portConstraint=eastwest;part=1;" connectable="0">
          <mxGeometry as="geometry" height="20" width="56"/>
        </mxCell>
        <mxCell id="SwsiR07pHhI11kPIutOl-145" value="" parent="SwsiR07pHhI11kPIutOl-101" vertex="1" style="shape=partialRectangle;top=0;left=0;right=0;bottom=0;html=1;align=left;verticalAlign=top;fillColor=none;spacingLeft=60;spacingRight=4;whiteSpace=wrap;overflow=hidden;rotatable=0;points=[[0,0.5],[1,0.5]];portConstraint=eastwest;dropTarget=0;">
          <mxGeometry as="geometry" height="20" width="160" y="264"/>
        </mxCell>
        <mxCell id="SwsiR07pHhI11kPIutOl-146" value="" parent="SwsiR07pHhI11kPIutOl-145" vertex="1" style="shape=partialRectangle;top=0;left=0;bottom=0;html=1;fillColor=none;align=left;verticalAlign=top;spacingLeft=4;spacingRight=4;whiteSpace=wrap;overflow=hidden;rotatable=0;points=[];portConstraint=eastwest;part=1;" connectable="0">
          <mxGeometry as="geometry" height="20" width="56"/>
        </mxCell>
        <mxCell id="SwsiR07pHhI11kPIutOl-154" parent="1" style="edgeStyle=orthogonalEdgeStyle;rounded=0;orthogonalLoop=1;jettySize=auto;html=1;entryX=0;entryY=0.5;entryDx=0;entryDy=0;" edge="1" target="PmstyWCTgp6tROXILMXU-92" source="SwsiR07pHhI11kPIutOl-152">
          <mxGeometry as="geometry" relative="1"/>
        </mxCell>
        <mxCell id="SwsiR07pHhI11kPIutOl-155" parent="1" style="edgeStyle=orthogonalEdgeStyle;rounded=0;orthogonalLoop=1;jettySize=auto;html=1;entryX=0;entryY=0.5;entryDx=0;entryDy=0;" edge="1" target="2e49270ec7c68f3f-81" source="SwsiR07pHhI11kPIutOl-61">
          <mxGeometry as="geometry" relative="1">
            <Array as="points">
              <mxPoint y="780" x="680"/>
              <mxPoint y="450" x="680"/>
              <mxPoint y="450" x="100"/>
              <mxPoint y="688" x="100"/>
            </Array>
          </mxGeometry>
        </mxCell>
        <mxCell id="SwsiR07pHhI11kPIutOl-158" parent="1" style="edgeStyle=orthogonalEdgeStyle;rounded=0;orthogonalLoop=1;jettySize=auto;html=1;entryX=0;entryY=0.5;entryDx=0;entryDy=0;" edge="1" target="SwsiR07pHhI11kPIutOl-102" source="SwsiR07pHhI11kPIutOl-156">
          <mxGeometry as="geometry" relative="1"/>
        </mxCell>
        <mxCell id="SwsiR07pHhI11kPIutOl-159" value="Profile" parent="1" vertex="1" style="swimlane;html=1;fontStyle=0;childLayout=stackLayout;horizontal=1;startSize=26;fillColor=#e0e0e0;horizontalStack=0;resizeParent=1;resizeLast=0;collapsible=1;marginBottom=0;swimlaneFillColor=#ffffff;align=center;rounded=0;shadow=0;comic=0;labelBackgroundColor=none;strokeColor=#000000;strokeWidth=1;fontFamily=Verdana;fontSize=14;fontColor=#000000;">
          <mxGeometry as="geometry" height="158" width="160" y="1300" x="450">
            <mxRectangle as="alternateBounds" height="26" width="140" y="580" x="290"/>
          </mxGeometry>
        </mxCell>
        <mxCell id="SwsiR07pHhI11kPIutOl-160" value="uniqueId" parent="SwsiR07pHhI11kPIutOl-159" vertex="1" style="shape=partialRectangle;top=0;left=0;right=0;bottom=0;html=1;align=left;verticalAlign=middle;fillColor=none;spacingLeft=60;spacingRight=4;whiteSpace=wrap;overflow=hidden;rotatable=0;points=[[0,0.5],[1,0.5]];portConstraint=eastwest;dropTarget=0;fontStyle=5;">
          <mxGeometry as="geometry" height="30" width="160" y="26"/>
        </mxCell>
        <mxCell id="SwsiR07pHhI11kPIutOl-161" value="PK,FK1" parent="SwsiR07pHhI11kPIutOl-160" vertex="1" style="shape=partialRectangle;fontStyle=1;top=0;left=0;bottom=0;html=1;fillColor=none;align=left;verticalAlign=middle;spacingLeft=4;spacingRight=4;whiteSpace=wrap;overflow=hidden;rotatable=0;points=[];portConstraint=eastwest;part=1;" connectable="0">
          <mxGeometry as="geometry" height="30" width="56"/>
        </mxCell>
        <mxCell id="SwsiR07pHhI11kPIutOl-162" value="" parent="SwsiR07pHhI11kPIutOl-159" vertex="1" style="shape=partialRectangle;top=0;left=0;right=0;bottom=1;html=1;align=left;verticalAlign=middle;fillColor=none;spacingLeft=60;spacingRight=4;whiteSpace=wrap;overflow=hidden;rotatable=0;points=[[0,0.5],[1,0.5]];portConstraint=eastwest;dropTarget=0;fontStyle=5;">
          <mxGeometry as="geometry" height="30" width="160" y="56"/>
        </mxCell>
        <mxCell id="SwsiR07pHhI11kPIutOl-163" value="" parent="SwsiR07pHhI11kPIutOl-162" vertex="1" style="shape=partialRectangle;fontStyle=1;top=0;left=0;bottom=0;html=1;fillColor=none;align=left;verticalAlign=middle;spacingLeft=4;spacingRight=4;whiteSpace=wrap;overflow=hidden;rotatable=0;points=[];portConstraint=eastwest;part=1;" connectable="0">
          <mxGeometry as="geometry" height="30" width="56"/>
        </mxCell>
        <mxCell id="SwsiR07pHhI11kPIutOl-164" value="Name" parent="SwsiR07pHhI11kPIutOl-159" vertex="1" style="shape=partialRectangle;top=0;left=0;right=0;bottom=0;html=1;align=left;verticalAlign=top;fillColor=none;spacingLeft=60;spacingRight=4;whiteSpace=wrap;overflow=hidden;rotatable=0;points=[[0,0.5],[1,0.5]];portConstraint=eastwest;dropTarget=0;">
          <mxGeometry as="geometry" height="24" width="160" y="86"/>
        </mxCell>
        <mxCell id="SwsiR07pHhI11kPIutOl-165" value="" parent="SwsiR07pHhI11kPIutOl-164" vertex="1" style="shape=partialRectangle;top=0;left=0;bottom=0;html=1;fillColor=none;align=left;verticalAlign=top;spacingLeft=4;spacingRight=4;whiteSpace=wrap;overflow=hidden;rotatable=0;points=[];portConstraint=eastwest;part=1;" connectable="0">
          <mxGeometry as="geometry" height="24" width="56"/>
        </mxCell>
        <mxCell id="SwsiR07pHhI11kPIutOl-166" value="Description" parent="SwsiR07pHhI11kPIutOl-159" vertex="1" style="shape=partialRectangle;top=0;left=0;right=0;bottom=0;html=1;align=left;verticalAlign=top;fillColor=none;spacingLeft=60;spacingRight=4;whiteSpace=wrap;overflow=hidden;rotatable=0;points=[[0,0.5],[1,0.5]];portConstraint=eastwest;dropTarget=0;">
          <mxGeometry as="geometry" height="24" width="160" y="110"/>
        </mxCell>
        <mxCell id="SwsiR07pHhI11kPIutOl-167" value="" parent="SwsiR07pHhI11kPIutOl-166" vertex="1" style="shape=partialRectangle;top=0;left=0;bottom=0;html=1;fillColor=none;align=left;verticalAlign=top;spacingLeft=4;spacingRight=4;whiteSpace=wrap;overflow=hidden;rotatable=0;points=[];portConstraint=eastwest;part=1;" connectable="0">
          <mxGeometry as="geometry" height="24" width="56"/>
        </mxCell>
        <mxCell id="SwsiR07pHhI11kPIutOl-180" value="ActionID" parent="SwsiR07pHhI11kPIutOl-159" vertex="1" style="shape=partialRectangle;top=0;left=0;right=0;bottom=0;html=1;align=left;verticalAlign=top;fillColor=none;spacingLeft=60;spacingRight=4;whiteSpace=wrap;overflow=hidden;rotatable=0;points=[[0,0.5],[1,0.5]];portConstraint=eastwest;dropTarget=0;">
          <mxGeometry as="geometry" height="24" width="160" y="134"/>
        </mxCell>
        <mxCell id="SwsiR07pHhI11kPIutOl-181" value="" parent="SwsiR07pHhI11kPIutOl-180" vertex="1" style="shape=partialRectangle;top=0;left=0;bottom=0;html=1;fillColor=none;align=left;verticalAlign=top;spacingLeft=4;spacingRight=4;whiteSpace=wrap;overflow=hidden;rotatable=0;points=[];portConstraint=eastwest;part=1;" connectable="0">
          <mxGeometry as="geometry" height="24" width="56"/>
        </mxCell>
        <mxCell id="SwsiR07pHhI11kPIutOl-168" value="Action" parent="1" vertex="1" style="swimlane;html=1;fontStyle=0;childLayout=stackLayout;horizontal=1;startSize=26;fillColor=#e0e0e0;horizontalStack=0;resizeParent=1;resizeLast=0;collapsible=1;marginBottom=0;swimlaneFillColor=#ffffff;align=center;rounded=0;shadow=0;comic=0;labelBackgroundColor=none;strokeColor=#000000;strokeWidth=1;fontFamily=Verdana;fontSize=14;fontColor=#000000;">
          <mxGeometry as="geometry" height="134" width="160" y="1300" x="670">
            <mxRectangle as="alternateBounds" height="26" width="140" y="580" x="290"/>
          </mxGeometry>
        </mxCell>
        <mxCell id="SwsiR07pHhI11kPIutOl-169" value="uniqueId" parent="SwsiR07pHhI11kPIutOl-168" vertex="1" style="shape=partialRectangle;top=0;left=0;right=0;bottom=0;html=1;align=left;verticalAlign=middle;fillColor=none;spacingLeft=60;spacingRight=4;whiteSpace=wrap;overflow=hidden;rotatable=0;points=[[0,0.5],[1,0.5]];portConstraint=eastwest;dropTarget=0;fontStyle=5;">
          <mxGeometry as="geometry" height="30" width="160" y="26"/>
        </mxCell>
        <mxCell id="SwsiR07pHhI11kPIutOl-170" value="PK,FK1" parent="SwsiR07pHhI11kPIutOl-169" vertex="1" style="shape=partialRectangle;fontStyle=1;top=0;left=0;bottom=0;html=1;fillColor=none;align=left;verticalAlign=middle;spacingLeft=4;spacingRight=4;whiteSpace=wrap;overflow=hidden;rotatable=0;points=[];portConstraint=eastwest;part=1;" connectable="0">
          <mxGeometry as="geometry" height="30" width="56"/>
        </mxCell>
        <mxCell id="SwsiR07pHhI11kPIutOl-171" value="" parent="SwsiR07pHhI11kPIutOl-168" vertex="1" style="shape=partialRectangle;top=0;left=0;right=0;bottom=1;html=1;align=left;verticalAlign=middle;fillColor=none;spacingLeft=60;spacingRight=4;whiteSpace=wrap;overflow=hidden;rotatable=0;points=[[0,0.5],[1,0.5]];portConstraint=eastwest;dropTarget=0;fontStyle=5;">
          <mxGeometry as="geometry" height="30" width="160" y="56"/>
        </mxCell>
        <mxCell id="SwsiR07pHhI11kPIutOl-172" value="" parent="SwsiR07pHhI11kPIutOl-171" vertex="1" style="shape=partialRectangle;fontStyle=1;top=0;left=0;bottom=0;html=1;fillColor=none;align=left;verticalAlign=middle;spacingLeft=4;spacingRight=4;whiteSpace=wrap;overflow=hidden;rotatable=0;points=[];portConstraint=eastwest;part=1;" connectable="0">
          <mxGeometry as="geometry" height="30" width="56"/>
        </mxCell>
        <mxCell id="SwsiR07pHhI11kPIutOl-173" value="Name" parent="SwsiR07pHhI11kPIutOl-168" vertex="1" style="shape=partialRectangle;top=0;left=0;right=0;bottom=0;html=1;align=left;verticalAlign=top;fillColor=none;spacingLeft=60;spacingRight=4;whiteSpace=wrap;overflow=hidden;rotatable=0;points=[[0,0.5],[1,0.5]];portConstraint=eastwest;dropTarget=0;">
          <mxGeometry as="geometry" height="24" width="160" y="86"/>
        </mxCell>
        <mxCell id="SwsiR07pHhI11kPIutOl-174" value="" parent="SwsiR07pHhI11kPIutOl-173" vertex="1" style="shape=partialRectangle;top=0;left=0;bottom=0;html=1;fillColor=none;align=left;verticalAlign=top;spacingLeft=4;spacingRight=4;whiteSpace=wrap;overflow=hidden;rotatable=0;points=[];portConstraint=eastwest;part=1;" connectable="0">
          <mxGeometry as="geometry" height="24" width="56"/>
        </mxCell>
        <mxCell id="SwsiR07pHhI11kPIutOl-175" value="Description" parent="SwsiR07pHhI11kPIutOl-168" vertex="1" style="shape=partialRectangle;top=0;left=0;right=0;bottom=0;html=1;align=left;verticalAlign=top;fillColor=none;spacingLeft=60;spacingRight=4;whiteSpace=wrap;overflow=hidden;rotatable=0;points=[[0,0.5],[1,0.5]];portConstraint=eastwest;dropTarget=0;">
          <mxGeometry as="geometry" height="24" width="160" y="110"/>
        </mxCell>
        <mxCell id="SwsiR07pHhI11kPIutOl-176" value="" parent="SwsiR07pHhI11kPIutOl-175" vertex="1" style="shape=partialRectangle;top=0;left=0;bottom=0;html=1;fillColor=none;align=left;verticalAlign=top;spacingLeft=4;spacingRight=4;whiteSpace=wrap;overflow=hidden;rotatable=0;points=[];portConstraint=eastwest;part=1;" connectable="0">
          <mxGeometry as="geometry" height="24" width="56"/>
        </mxCell>
        <mxCell id="SwsiR07pHhI11kPIutOl-179" parent="1" style="edgeStyle=orthogonalEdgeStyle;rounded=0;orthogonalLoop=1;jettySize=auto;html=1;entryX=0.006;entryY=0.733;entryDx=0;entryDy=0;entryPerimeter=0;" edge="1" target="SwsiR07pHhI11kPIutOl-160" source="SwsiR07pHhI11kPIutOl-177">
          <mxGeometry as="geometry" relative="1"/>
        </mxCell>
        <mxCell id="SwsiR07pHhI11kPIutOl-182" parent="1" style="edgeStyle=orthogonalEdgeStyle;rounded=0;orthogonalLoop=1;jettySize=auto;html=1;entryX=0;entryY=0.5;entryDx=0;entryDy=0;" edge="1" target="SwsiR07pHhI11kPIutOl-169" source="SwsiR07pHhI11kPIutOl-180">
          <mxGeometry as="geometry" relative="1"/>
        </mxCell>
        <mxCell id="SwsiR07pHhI11kPIutOl-197" value="AuditType" parent="1" vertex="1" style="swimlane;html=1;fontStyle=0;childLayout=stackLayout;horizontal=1;startSize=26;fillColor=#e0e0e0;horizontalStack=0;resizeParent=1;resizeLast=0;collapsible=1;marginBottom=0;swimlaneFillColor=#ffffff;align=center;rounded=0;shadow=0;comic=0;labelBackgroundColor=none;strokeColor=#000000;strokeWidth=1;fontFamily=Verdana;fontSize=14;fontColor=#000000;">
          <mxGeometry as="geometry" height="140" width="160" y="270" x="250">
            <mxRectangle as="alternateBounds" height="26" width="140" y="580" x="290"/>
          </mxGeometry>
        </mxCell>
        <mxCell id="SwsiR07pHhI11kPIutOl-198" value="Id" parent="SwsiR07pHhI11kPIutOl-197" vertex="1" style="shape=partialRectangle;top=0;left=0;right=0;bottom=0;html=1;align=left;verticalAlign=middle;fillColor=none;spacingLeft=60;spacingRight=4;whiteSpace=wrap;overflow=hidden;rotatable=0;points=[[0,0.5],[1,0.5]];portConstraint=eastwest;dropTarget=0;fontStyle=5;">
          <mxGeometry as="geometry" height="30" width="160" y="26"/>
        </mxCell>
        <mxCell id="SwsiR07pHhI11kPIutOl-199" value="PK,FK1" parent="SwsiR07pHhI11kPIutOl-198" vertex="1" style="shape=partialRectangle;fontStyle=1;top=0;left=0;bottom=0;html=1;fillColor=none;align=left;verticalAlign=middle;spacingLeft=4;spacingRight=4;whiteSpace=wrap;overflow=hidden;rotatable=0;points=[];portConstraint=eastwest;part=1;" connectable="0">
          <mxGeometry as="geometry" height="30" width="56"/>
        </mxCell>
        <mxCell id="SwsiR07pHhI11kPIutOl-200" value="" parent="SwsiR07pHhI11kPIutOl-197" vertex="1" style="shape=partialRectangle;top=0;left=0;right=0;bottom=1;html=1;align=left;verticalAlign=middle;fillColor=none;spacingLeft=60;spacingRight=4;whiteSpace=wrap;overflow=hidden;rotatable=0;points=[[0,0.5],[1,0.5]];portConstraint=eastwest;dropTarget=0;fontStyle=5;">
          <mxGeometry as="geometry" height="30" width="160" y="56"/>
        </mxCell>
        <mxCell id="SwsiR07pHhI11kPIutOl-201" value="" parent="SwsiR07pHhI11kPIutOl-200" vertex="1" style="shape=partialRectangle;fontStyle=1;top=0;left=0;bottom=0;html=1;fillColor=none;align=left;verticalAlign=middle;spacingLeft=4;spacingRight=4;whiteSpace=wrap;overflow=hidden;rotatable=0;points=[];portConstraint=eastwest;part=1;" connectable="0">
          <mxGeometry as="geometry" height="30" width="56"/>
        </mxCell>
        <mxCell id="SwsiR07pHhI11kPIutOl-202" value="Name" parent="SwsiR07pHhI11kPIutOl-197" vertex="1" style="shape=partialRectangle;top=0;left=0;right=0;bottom=0;html=1;align=left;verticalAlign=top;fillColor=none;spacingLeft=60;spacingRight=4;whiteSpace=wrap;overflow=hidden;rotatable=0;points=[[0,0.5],[1,0.5]];portConstraint=eastwest;dropTarget=0;">
          <mxGeometry as="geometry" height="24" width="160" y="86"/>
        </mxCell>
        <mxCell id="SwsiR07pHhI11kPIutOl-203" value="" parent="SwsiR07pHhI11kPIutOl-202" vertex="1" style="shape=partialRectangle;top=0;left=0;bottom=0;html=1;fillColor=none;align=left;verticalAlign=top;spacingLeft=4;spacingRight=4;whiteSpace=wrap;overflow=hidden;rotatable=0;points=[];portConstraint=eastwest;part=1;" connectable="0">
          <mxGeometry as="geometry" height="24" width="56"/>
        </mxCell>
        <mxCell id="SwsiR07pHhI11kPIutOl-204" value="Description" parent="SwsiR07pHhI11kPIutOl-197" vertex="1" style="shape=partialRectangle;top=0;left=0;right=0;bottom=0;html=1;align=left;verticalAlign=top;fillColor=none;spacingLeft=60;spacingRight=4;whiteSpace=wrap;overflow=hidden;rotatable=0;points=[[0,0.5],[1,0.5]];portConstraint=eastwest;dropTarget=0;">
          <mxGeometry as="geometry" height="24" width="160" y="110"/>
        </mxCell>
        <mxCell id="SwsiR07pHhI11kPIutOl-205" value="" parent="SwsiR07pHhI11kPIutOl-204" vertex="1" style="shape=partialRectangle;top=0;left=0;bottom=0;html=1;fillColor=none;align=left;verticalAlign=top;spacingLeft=4;spacingRight=4;whiteSpace=wrap;overflow=hidden;rotatable=0;points=[];portConstraint=eastwest;part=1;" connectable="0">
          <mxGeometry as="geometry" height="24" width="56"/>
        </mxCell>
        <mxCell id="JcxZJBn8IdicCQ15-EnD-1" parent="1" style="edgeStyle=orthogonalEdgeStyle;rounded=0;orthogonalLoop=1;jettySize=auto;html=1;entryX=0;entryY=0.5;entryDx=0;entryDy=0;" edge="1" target="SwsiR07pHhI11kPIutOl-198" source="SwsiR07pHhI11kPIutOl-208">
          <mxGeometry as="geometry" relative="1"/>
        </mxCell>
      </root>
    </mxGraphModel>
  </diagram>
</mxfile>
